<svg xmlns="http://www.w3.org/2000/svg" viewBox="0 0 831.57 1015.67"><defs><style>.cls-1{fill:#347bbf;}.cls-2{fill:#75808b;}</style></defs><g id="Camada_2" data-name="Camada 2"><g id="Camada_1-2" data-name="Camada 1"><path class="cls-1" d="M134.94,709l-3.54,31A76.29,76.29,0,0,0,105,714.39a70.24,70.24,0,0,0-35.58-9.11q-20.44,0-36.2,9.24a63.49,63.49,0,0,0-24.5,25.85Q0,757,0,779.16q0,21.92,8.74,38.53a63.58,63.58,0,0,0,24.5,25.86q15.76,9.24,36.2,9.23A70.13,70.13,0,0,0,105,843.67,75.1,75.1,0,0,0,131.35,818l3.59,31.12h42.6l-8.12-69.93L177.54,709Zm-14,91.86a59.22,59.22,0,0,1-18.1,14.65A46.73,46.73,0,0,1,81,820.77a39.1,39.1,0,0,1-20.44-5.29,37.38,37.38,0,0,1-13.91-14.65,45,45,0,0,1-5-21.67,45.78,45.78,0,0,1,5-21.8,37.18,37.18,0,0,1,13.91-14.77A39.1,39.1,0,0,1,81,737.3a46.73,46.73,0,0,1,21.8,5.29,58.48,58.48,0,0,1,18.1,14.77,72.12,72.12,0,0,1,12.31,21.8A70.38,70.38,0,0,1,120.91,800.83Z"/><rect class="cls-1" x="205.12" y="659.48" width="41.13" height="189.61"/><path class="cls-1" d="M416.77,714.52q-15.63-9.24-36.31-9.24a69.83,69.83,0,0,0-35.35,9.11,75.22,75.22,0,0,0-26.34,25.73c-.14.21-.24.45-.37.66V709H277.27V889.72H318.4V817.08c.17.27.31.58.49.86a76.94,76.94,0,0,0,26.22,25.73q15.64,9.12,35.35,9.11,20.67,0,36.31-9.23a64.8,64.8,0,0,0,24.51-25.86q8.87-16.62,8.86-38.53,0-22.17-8.86-38.79A64.71,64.71,0,0,0,416.77,714.52Zm-13.29,86.31a37.41,37.41,0,0,1-13.92,14.65,39.08,39.08,0,0,1-20.44,5.29,47.41,47.41,0,0,1-21.91-5.29,57.27,57.27,0,0,1-18.1-14.65,71.56,71.56,0,0,1-12.19-21.67,73.35,73.35,0,0,1,12.19-21.8,56.59,56.59,0,0,1,18.1-14.77,47.41,47.41,0,0,1,21.91-5.29,39.08,39.08,0,0,1,20.44,5.29,37.2,37.2,0,0,1,13.92,14.77,45.77,45.77,0,0,1,5,21.8A45,45,0,0,1,403.48,800.83Z"/><path class="cls-1" d="M602.81,713.28q-14-8-34-8a62.6,62.6,0,0,0-31.52,8.13,64.07,64.07,0,0,0-21.91,21.06v-75H474.27V849.09H515.4V781.37q0-13.05,4.79-22.41A35.61,35.61,0,0,1,534,744.31Q543,739,555,739q17.24,0,26.35,9.72t9.11,28.69v71.66h41.13V771.27q0-20.43-7.4-35.21A52.72,52.72,0,0,0,602.81,713.28Z"/><path class="cls-1" d="M831.57,709H789l-3.55,31a76.18,76.18,0,0,0-26.37-25.6,70.3,70.3,0,0,0-35.59-9.11q-20.43,0-36.19,9.24a63.58,63.58,0,0,0-24.51,25.85Q654,757,654,779.16q0,21.92,8.74,38.53a63.67,63.67,0,0,0,24.51,25.86q15.75,9.24,36.19,9.23a70.2,70.2,0,0,0,35.59-9.11A75.16,75.16,0,0,0,785.38,818l3.6,31.12h42.59l-8.12-69.93Zm-56.63,91.86a59.22,59.22,0,0,1-18.1,14.65,46.72,46.72,0,0,1-21.79,5.29,39.05,39.05,0,0,1-20.44-5.29,37.41,37.41,0,0,1-13.92-14.65,45,45,0,0,1-5-21.67,45.77,45.77,0,0,1,5-21.8,37.2,37.2,0,0,1,13.92-14.77,39.05,39.05,0,0,1,20.44-5.29,46.72,46.72,0,0,1,21.79,5.29,58.48,58.48,0,0,1,18.1,14.77,71.91,71.91,0,0,1,12.31,21.8A70.18,70.18,0,0,1,774.94,800.83Z"/><path class="cls-2" d="M65.38,924a30.7,30.7,0,0,0-13.86-2.83H24.78v72.36h9.64V965.17h17.1a33.47,33.47,0,0,0,13.86-2.56,18.53,18.53,0,0,0,8.6-7.48,22.73,22.73,0,0,0,2.94-11.88A22,22,0,0,0,74,931.82,20.11,20.11,0,0,0,65.38,924Zm.28,26.59a11.44,11.44,0,0,1-5.07,5,19.51,19.51,0,0,1-9.07,1.82H34.42V929h17.1a17.71,17.71,0,0,1,9.07,2,12.67,12.67,0,0,1,5.07,5.31,16.61,16.61,0,0,1,0,14.27Z"/><path class="cls-2" d="M159.09,958.91a19.61,19.61,0,0,0,5.79-7,20.13,20.13,0,0,0,2-9A22.48,22.48,0,0,0,163.94,931a18.53,18.53,0,0,0-8.63-7.33,34.24,34.24,0,0,0-13.81-2.48h-24v72.36h9.64V964.23h16.87l15.69,29.32h10.33V993l-17-30.84A24.2,24.2,0,0,0,159.09,958.91Zm-17.35-2.44H127.18V929H141.5q8.25,0,12,3.8t3.73,10.12a13.76,13.76,0,0,1-1.71,6.8,12.38,12.38,0,0,1-5.15,4.92A18,18,0,0,1,141.74,956.47Z"/><path class="cls-2" d="M250.69,924.39a28,28,0,0,0-40.81,12q-3.7,7.83-3.7,18.66v4.62q0,10.84,3.73,18.64a28.11,28.11,0,0,0,10.34,12,27.66,27.66,0,0,0,40.6-12q3.58-7.8,3.58-18.64v-4.62q0-10.83-3.6-18.66A27.53,27.53,0,0,0,250.69,924.39Zm4.2,35.31a41.08,41.08,0,0,1-2.29,14.67,19.13,19.13,0,0,1-6.63,9,19.27,19.27,0,0,1-20.9,0,19.76,19.76,0,0,1-6.86-9,38.8,38.8,0,0,1-2.44-14.67V955a39,39,0,0,1,2.41-14.58,19.72,19.72,0,0,1,6.81-9,17.59,17.59,0,0,1,10.32-3.08,17.82,17.82,0,0,1,10.53,3.08,19.22,19.22,0,0,1,6.71,9A39.92,39.92,0,0,1,254.89,955Z"/><polygon class="cls-2" points="320.56 921.19 297.4 921.19 297.4 928.99 320.56 928.99 320.56 993.55 330.11 993.55 330.11 928.99 353.32 928.99 353.32 921.19 330.11 921.19 320.56 921.19"/><polygon class="cls-2" points="402.2 960.05 433.46 960.05 433.46 952.3 402.2 952.3 402.2 928.99 438.03 928.99 438.03 921.19 402.2 921.19 400.31 921.19 392.56 921.19 392.56 993.55 400.31 993.55 402.2 993.55 438.53 993.55 438.53 985.8 402.2 985.8 402.2 960.05"/><path class="cls-2" d="M488.32,940.17a19.63,19.63,0,0,1,6.54-9,17.49,17.49,0,0,1,10.73-3.2q8.36,0,12.11,4.39t4.84,12h9.64a31.48,31.48,0,0,0-3.9-12.63,22,22,0,0,0-8.82-8.52,28.87,28.87,0,0,0-13.87-3.06,28.19,28.19,0,0,0-15.5,4.18A27.27,27.27,0,0,0,480,936.07a41,41,0,0,0-3.55,17.67v7.31A41.32,41.32,0,0,0,480,978.69a27.37,27.37,0,0,0,9.89,11.7,25.49,25.49,0,0,0,11.32,3.93l-1.48,6.44a18.67,18.67,0,0,1,6.09,1.26,3.48,3.48,0,0,1,1.91,3.46,3.75,3.75,0,0,1-1.12,2.83,6.55,6.55,0,0,1-3,1.59,16.11,16.11,0,0,1-4.15.5l.35,5.27q7.39,0,11.26-2.86a8.93,8.93,0,0,0,3.85-7.53q0-4.32-2.36-6.21a11.27,11.27,0,0,0-5.25-2.39l.52-2.28a28.33,28.33,0,0,0,11.46-3,22.47,22.47,0,0,0,9-8.57,30.47,30.47,0,0,0,3.92-12.25h-9.64a28.55,28.55,0,0,1-2.66,8.7,12.86,12.86,0,0,1-5.46,5.56c-2.4,1.3-5.64,1.94-9.72,1.94a15.68,15.68,0,0,1-10.51-3.48A20.56,20.56,0,0,1,488.1,974a39.79,39.79,0,0,1-2-12.94v-7.41A37.62,37.62,0,0,1,488.32,940.17Z"/><path class="cls-2" d="M590.53,912.12a4.46,4.46,0,0,1,3.5-1.62,7.73,7.73,0,0,1,3.51.72,21.82,21.82,0,0,1,2.7,1.64,16.42,16.42,0,0,0,2.94,1.64,10.4,10.4,0,0,0,4.17.72,10.06,10.06,0,0,0,5.44-1.49,10.73,10.73,0,0,0,3.86-4.17,13.31,13.31,0,0,0,1.44-6.32l-6.22-.59a5.8,5.8,0,0,1-1.44,4,4.52,4.52,0,0,1-3.53,1.61,8.05,8.05,0,0,1-3.52-.72,25,25,0,0,1-3-1.66,21.59,21.59,0,0,0-3.08-1.67,9.16,9.16,0,0,0-3.73-.72,9.73,9.73,0,0,0-5.44,1.57,11.19,11.19,0,0,0-3.83,4.3,13.67,13.67,0,0,0-1.41,6.36l6.21.35A5.74,5.74,0,0,1,590.53,912.12Z"/><path class="cls-2" d="M615.63,924.39a27.86,27.86,0,0,0-15.39-4.2,27.52,27.52,0,0,0-15.13,4.2,28.1,28.1,0,0,0-10.29,12q-3.71,7.83-3.7,18.66v4.62q0,10.84,3.73,18.64a28.11,28.11,0,0,0,10.34,12,27.66,27.66,0,0,0,40.6-12q3.59-7.8,3.58-18.64v-4.62q0-10.83-3.6-18.66A27.53,27.53,0,0,0,615.63,924.39Zm4.2,35.31a41.08,41.08,0,0,1-2.29,14.67,19.19,19.19,0,0,1-6.63,9,17.79,17.79,0,0,1-10.57,3.08A17.55,17.55,0,0,1,590,983.41a19.76,19.76,0,0,1-6.86-9,38.8,38.8,0,0,1-2.44-14.67V955a39,39,0,0,1,2.41-14.58,19.72,19.72,0,0,1,6.81-9,17.54,17.54,0,0,1,10.31-3.08,17.87,17.87,0,0,1,10.54,3.08,19.29,19.29,0,0,1,6.71,9A39.92,39.92,0,0,1,619.83,955Z"/><polygon class="cls-2" points="681.88 960.05 713.14 960.05 713.14 952.3 681.88 952.3 681.88 928.99 717.71 928.99 717.71 921.19 681.88 921.19 679.99 921.19 672.24 921.19 672.24 993.55 679.99 993.55 681.88 993.55 718.21 993.55 718.21 985.8 681.88 985.8 681.88 960.05"/><path class="cls-2" d="M796.51,958.26A59.92,59.92,0,0,0,783,952.94a54.79,54.79,0,0,1-9.64-3.57,15.26,15.26,0,0,1-5.47-4.25,8.89,8.89,0,0,1-1.74-5.4,11.41,11.41,0,0,1,1.59-6,10.77,10.77,0,0,1,4.9-4.17,19.77,19.77,0,0,1,8.37-1.54,19.5,19.5,0,0,1,9,1.81,12,12,0,0,1,5.24,5,15.12,15.12,0,0,1,1.71,7.26h9.7a20.43,20.43,0,0,0-3-10.66,22.07,22.07,0,0,0-8.69-8.1,28.84,28.84,0,0,0-13.92-3.11,30.55,30.55,0,0,0-12.92,2.56,20.68,20.68,0,0,0-8.58,7,17.5,17.5,0,0,0-3,10.11,16.63,16.63,0,0,0,1.64,7.51,17.81,17.81,0,0,0,4.72,5.81,33.23,33.23,0,0,0,7.38,4.5,69.77,69.77,0,0,0,9.67,3.51,59.89,59.89,0,0,1,10.58,3.92,12.59,12.59,0,0,1,5.17,4.33,11,11,0,0,1,1.44,5.81,10.33,10.33,0,0,1-1.81,6.11,11.61,11.61,0,0,1-5.27,4,22.25,22.25,0,0,1-8.47,1.42,26.42,26.42,0,0,1-6.66-.82,17.44,17.44,0,0,1-5.67-2.56A12.53,12.53,0,0,1,765.3,979a13.39,13.39,0,0,1-1.45-6.41h-9.64a18.77,18.77,0,0,0,2.36,9.51,21.51,21.51,0,0,0,6.31,6.89,28.88,28.88,0,0,0,8.8,4.17,35.49,35.49,0,0,0,9.87,1.39,34.18,34.18,0,0,0,13.32-2.38,20.1,20.1,0,0,0,8.79-6.76,17.11,17.11,0,0,0,3.14-10.24,18.39,18.39,0,0,0-2.51-9.74A21.24,21.24,0,0,0,796.51,958.26Z"/><path class="cls-1" d="M672.67,428.77c-5-8.82-10.45-17.46-15.17-27.45a2.2,2.2,0,0,0-3.91-.11c-4.36,8-7.71,14.1-9.71,17.58a371,371,0,0,1-34.31,52.84,6.72,6.72,0,0,0-.36,7.77C658.7,556.71,737.56,554.13,821,503.31c7.69-4.69,3.76-16.53-5.2-15.63C767.16,492.59,705.34,486.13,672.67,428.77Z"/><path class="cls-2" d="M356,524a1.07,1.07,0,0,0-1,1c-1.43,17-2.16,32-11.19,46.32-.35.57-.24,1.28.43,1.32q8.47.51,17,.51c99.57,0,202.55-53.34,262.49-165.59C640,379.42,765.32,142.46,774.22,111.74A10.82,10.82,0,0,0,764,98c-.3,0-.6,0-.9,0l-121.22-.24a10,10,0,0,0-9.4,9.18C623.16,272.65,559.29,507.59,356,524Z"/><path class="cls-1" d="M153.17,488.21a2.58,2.58,0,0,1,2,.77c45,45.37,140.3,94.53,170.6,61.78C338.28,537.23,289,438.46,255.25,377a3,3,0,0,1,.07-3.59c34.92-38.41,53.06-103.16,54.78-131.5a5,5,0,0,0-5.06-5.55,5.08,5.08,0,0,0-3.79,1.65c-41.32,42.46-55.68,53-88.22,67.92a2.64,2.64,0,0,1-3.66-1.34c-36-127.68,29.84-215.82,165.06-219,30.28-.72,72.06,6.88,118.19,36.13s74.71,80.78,86.12,135.08a4.68,4.68,0,0,0,9.11.14,772.93,772.93,0,0,0,18.7-113.35,2.71,2.71,0,0,0-.44-1.73c-5.92-8.93-17.86-27.16-22.76-33.46-40.49-52.11-89.9-77.58-127.17-91.93C412.58-.33,342.24-3.93,305,4.09c-118.45,27.82-164.8,88-202.28,151.34l0,0c-22.54,48.17-30.17,76-31.45,129.87-2.64,86.86,45.21,156.1,45.21,156.1a1.49,1.49,0,0,1-2.09,2.09l-1.15-.82s-19.4-14.14-23.83-17.3a2.62,2.62,0,0,0-1.94-.45A572.73,572.73,0,0,1,9.2,431.52a2.72,2.72,0,0,0-1.65,4.87C50.13,469.68,98.29,490.64,153.17,488.21Z"/></g></g></svg>