<?xml version="1.0" encoding="UTF-8"?>
<svg id="Camada_1" data-name="Camada 1" xmlns="http://www.w3.org/2000/svg" viewBox="0 0 1080 1080">
  <defs>
    <style>
      .cls-1 {
        fill: #bf973d;
      }

      .cls-2 {
        fill: #22305d;
      }

      .cls-3 {
        fill: #c8952d;
      }

      .cls-4 {
        fill: #f5a017;
      }
    </style>
  </defs>
  <g>
    <path class="cls-2" d="M226.96,855.55c13.91,0,22.95,3.93,29.47,10.22,6.52,6.21,10.45,14.62,10.84,23.5.47,8.88-2.59,17.6-8.49,24.36-6.68,7.7-16.74,12.73-31.75,12.73h-45.19v23.81h-26.25v-88.72c0-3.93,2.2-5.89,6.37-5.89h64.99ZM227.51,903.09c5.82,0,9.12-1.65,11.32-4.48,1.57-1.89,2.44-4.32,2.36-6.76,0-2.59-.79-5.11-2.44-7.15-2.2-2.51-5.5-4.17-11.16-4.17h-43.85c-1.18,0-1.89.55-1.89,1.96v20.59h45.74-.08Z"/>
    <path class="cls-2" d="M339.41,950.16c-17.52,0-30.49-5.89-39.45-15.4-8.64-9.27-13.2-21.53-12.57-34.03.63-12.5,6.29-24.28,15.8-32.77,8.72-7.7,20.43-12.5,36.31-12.5h20.59c15.8,0,27.58,4.79,36.31,12.5,9.51,8.49,15.17,20.27,15.72,32.77.55,12.5-3.93,24.68-12.57,34.03-8.96,9.51-21.93,15.4-39.45,15.4h-20.67ZM339.41,880.54c-8.88,0-14.3,2.36-18.55,6.13-4.4,4.01-7.07,9.51-7.23,15.4-.24,5.82,1.96,11.55,6.05,15.87,4.16,4.48,10.45,7.31,19.72,7.31h20.59c9.27,0,15.48-2.83,19.72-7.31,4.09-4.32,6.29-9.98,6.05-15.87-.24-5.82-2.83-11.39-7.23-15.4-4.24-3.77-9.74-6.13-18.55-6.13h-20.59Z"/>
    <path class="cls-2" d="M538.7,855.55v25.07h-42.99v69.55h-26.33v-69.55h-43.14v-25.07s112.46,0,112.46,0Z"/>
    <path class="cls-2" d="M663.58,855.55v25.07h-74.58c-1.57,0-2.36.86-2.36,2.36v10.77h76.46v18.23h-76.46v11.47c0,1.65.71,2.51,2.36,2.51h74.58v24.2h-89.43c-9.12,0-13.75-4.32-13.75-13.12v-68.68c0-8.57,4.64-12.73,13.91-12.73h89.27v-.08Z"/>
    <path class="cls-2" d="M713.79,950.16h-26.25v-88.72c0-3.93,2.2-5.89,6.52-5.89h69.63c12.02,0,19.72,3.46,25.07,8.96,4.95,5.03,7.78,11.63,7.86,18.62,0,7.54-2.36,14.7-9.27,19.57,6.52,3.77,9.43,8.8,9.43,19.57v18.86c0,2.99.08,5.97.47,8.96h-26.56c-.31-2.12-.47-4.17-.47-6.29v-18.86c0-6.05-3.06-8.41-10.77-8.41h-45.74v33.56l.08.08ZM760.23,895c1.41.08,2.83-.16,4.09-.71s2.44-1.34,3.3-2.36c1.18-1.41,1.89-3.14,1.89-4.87,0-1.96-.71-3.93-2.2-5.34-1.49-1.57-3.77-2.51-7.15-2.51h-44.24c-.31,0-.63,0-.86.08-.24.08-.55.24-.71.47-.24.24-.39.47-.47.71s-.16.55-.08.86v13.75h46.52l-.08-.08Z"/>
    <path class="cls-2" d="M924.4,855.55v25.07h-74.58c-1.57,0-2.36.86-2.36,2.36v10.77h76.46v18.23h-76.46v11.47c0,1.65.71,2.51,2.36,2.51h74.58v24.2h-89.43c-9.12,0-13.75-4.32-13.75-13.12v-68.68c0-8.57,4.64-12.73,13.91-12.73h89.27v-.08Z"/>
  </g>
  <g>
    <path class="cls-1" d="M383.99,1002.93c.65-2.21,1.78-4.02,3.37-5.45,1.59-1.43,3.78-2.14,6.57-2.14,1.82,0,3.42.4,4.79,1.2s2.45,1.88,3.25,3.23c.8,1.36,1.26,2.86,1.39,4.51h6.55c-.12-2.76-.86-5.23-2.2-7.41-1.34-2.18-3.19-3.91-5.55-5.18-2.35-1.27-5.1-1.9-8.23-1.9-3.99,0-7.31.92-9.95,2.76-2.64,1.84-4.61,4.26-5.92,7.28-1.31,3.02-1.96,6.33-1.96,9.93v1.55c0,3.57.65,6.88,1.94,9.91,1.29,3.03,3.26,5.47,5.9,7.3,2.64,1.84,5.97,2.75,9.99,2.75,2.84,0,5.44-.62,7.8-1.87s4.29-2.88,5.77-4.92c1.48-2.03,2.28-4.23,2.4-6.6h-6.55c-.12,1.5-.63,2.85-1.52,4.03-.89,1.18-2.02,2.11-3.4,2.79-1.38.68-2.89,1.02-4.51,1.02-2.81,0-5.01-.71-6.6-2.13-1.59-1.42-2.71-3.23-3.35-5.45-.64-2.22-.96-4.5-.96-6.84v-1.55c0-2.34.33-4.62.98-6.82Z"/>
    <path class="cls-1" d="M443.71,992.47c-2.74-1.79-5.99-2.68-9.76-2.68s-6.94.89-9.65,2.68c-2.71,1.79-4.81,4.21-6.29,7.27-1.48,3.06-2.22,6.52-2.22,10.39v.85c0,3.84.74,7.3,2.22,10.37s3.58,5.49,6.31,7.26c2.72,1.78,5.96,2.66,9.71,2.66s6.98-.89,9.71-2.66c2.72-1.77,4.82-4.2,6.29-7.26,1.47-3.07,2.2-6.53,2.2-10.37v-.85c0-3.87-.73-7.33-2.2-10.39-1.47-3.06-3.57-5.48-6.31-7.27ZM445.3,1010.98c0,2.64-.42,5.08-1.26,7.32-.84,2.24-2.09,4.04-3.75,5.4-1.66,1.36-3.75,2.03-6.27,2.03s-4.64-.68-6.31-2.03-2.92-3.15-3.75-5.4c-.84-2.24-1.26-4.68-1.26-7.32v-.85c0-2.64.41-5.08,1.24-7.32s2.08-4.05,3.75-5.42c1.68-1.37,3.76-2.05,6.25-2.05s4.65.68,6.32,2.05c1.68,1.37,2.93,3.17,3.77,5.42.84,2.24,1.26,4.68,1.26,7.32v.85Z"/>
    <path class="cls-1" d="M486.3,991.25c-1.91-.97-4.19-1.46-6.82-1.46-3.23,0-6.06.83-8.49,2.5-1.3.89-2.43,1.97-3.43,3.21l-.22-4.96h-6.55v40h6.92v-28.6c.43-.85.93-1.65,1.52-2.38,1.01-1.26,2.21-2.24,3.59-2.96s2.92-1.07,4.62-1.07,3.18.29,4.36.87c1.18.58,2.08,1.51,2.68,2.79.6,1.28.91,2.97.91,5.06v26.29h6.92v-26.21c0-3.5-.52-6.31-1.57-8.43-1.05-2.12-2.53-3.66-4.44-4.64Z"/>
    <path class="cls-1" d="M526.56,1010.12c-2.12-1.03-4.82-1.92-8.1-2.66-2.51-.57-4.43-1.13-5.75-1.7-1.32-.57-2.23-1.21-2.72-1.94s-.74-1.58-.74-2.57.26-1.93.8-2.83c.53-.9,1.38-1.64,2.55-2.22,1.17-.58,2.69-.87,4.57-.87,2.69,0,4.75.74,6.2,2.22s2.16,3.04,2.16,4.69h6.92c0-2.29-.6-4.38-1.81-6.27-1.21-1.89-2.95-3.39-5.23-4.51-2.28-1.12-5.02-1.68-8.23-1.68-2.98,0-5.59.54-7.82,1.61s-3.96,2.49-5.18,4.25c-1.22,1.76-1.83,3.7-1.83,5.82s.58,4.03,1.76,5.51,2.84,2.69,4.99,3.64,4.72,1.73,7.67,2.35c2.64.54,4.61,1.16,5.92,1.87,1.31.7,2.18,1.48,2.61,2.33.43.85.65,1.77.65,2.75,0,1.11-.33,2.1-.98,2.98-.65.87-1.61,1.57-2.89,2.07-1.27.51-2.84.76-4.72.76-1.4,0-2.82-.23-4.23-.7s-2.61-1.25-3.59-2.35c-.97-1.1-1.52-2.58-1.65-4.46h-6.92c0,2.22.63,4.32,1.89,6.3,1.26,1.98,3.11,3.6,5.55,4.86,2.44,1.26,5.42,1.89,8.95,1.89,3.13,0,5.86-.5,8.17-1.5,2.32-1,4.12-2.39,5.4-4.18,1.28-1.79,1.92-3.84,1.92-6.16,0-2.17-.52-4-1.55-5.51-1.04-1.5-2.61-2.77-4.73-3.81Z"/>
    <polygon class="cls-1" points="570.79 974.97 562.47 974.97 555.29 985.8 560.84 985.8 570.79 974.97"/>
    <path class="cls-1" d="M567.87,992.47c-2.74-1.79-5.99-2.68-9.76-2.68s-6.94.89-9.65,2.68c-2.71,1.79-4.81,4.21-6.29,7.27-1.48,3.06-2.22,6.52-2.22,10.39v.85c0,3.84.74,7.3,2.22,10.37s3.58,5.49,6.31,7.26c2.73,1.78,5.96,2.66,9.71,2.66s6.98-.89,9.71-2.66c2.73-1.77,4.82-4.2,6.29-7.26s2.2-6.53,2.2-10.37v-.85c0-3.87-.73-7.33-2.2-10.39-1.47-3.06-3.57-5.48-6.31-7.27ZM569.46,1010.98c0,2.64-.42,5.08-1.26,7.32-.84,2.24-2.09,4.04-3.75,5.4s-3.76,2.03-6.27,2.03-4.64-.68-6.31-2.03-2.92-3.15-3.76-5.4c-.84-2.24-1.26-4.68-1.26-7.32v-.85c0-2.64.41-5.08,1.24-7.32.83-2.24,2.08-4.05,3.76-5.42,1.68-1.37,3.76-2.05,6.25-2.05s4.65.68,6.32,2.05c1.67,1.37,2.93,3.17,3.77,5.42.84,2.24,1.26,4.68,1.26,7.32v.85Z"/>
    <path class="cls-1" d="M601.3,989.79c-2.89,0-5.25.81-7.08,2.42-.92.81-1.72,1.76-2.4,2.84l-.13-4.52h-6.73v40h6.91v-28.36c.14-.33.28-.66.45-.98.79-1.52,1.9-2.7,3.35-3.57,1.44-.86,3.21-1.29,5.31-1.29.64,0,1.21.02,1.72.06s1.05.12,1.64.24v-6.32c-.25-.12-.7-.24-1.35-.35s-1.21-.17-1.68-.17Z"/>
    <path class="cls-1" d="M616.75,1002.93c.65-2.21,1.77-4.02,3.36-5.45,1.59-1.43,3.78-2.14,6.57-2.14,1.82,0,3.42.4,4.79,1.2s2.45,1.88,3.26,3.23c.8,1.36,1.26,2.86,1.39,4.51h6.55c-.12-2.76-.86-5.23-2.2-7.41-1.34-2.18-3.19-3.91-5.55-5.18s-5.1-1.9-8.23-1.9c-4,0-7.31.92-9.95,2.76-2.64,1.84-4.61,4.26-5.92,7.28-1.31,3.02-1.96,6.33-1.96,9.93v1.55c0,3.57.65,6.88,1.94,9.91,1.29,3.03,3.26,5.47,5.9,7.3s5.97,2.75,9.99,2.75c2.83,0,5.44-.62,7.8-1.87s4.29-2.88,5.77-4.92c1.48-2.03,2.28-4.23,2.4-6.6h-6.55c-.12,1.5-.63,2.85-1.51,4.03-.89,1.18-2.02,2.11-3.4,2.79-1.38.68-2.89,1.02-4.51,1.02-2.81,0-5.01-.71-6.6-2.13-1.59-1.42-2.7-3.23-3.35-5.45s-.96-4.5-.96-6.84v-1.55c0-2.34.33-4.62.98-6.82Z"/>
    <rect class="cls-1" x="651.16" y="990.53" width="6.88" height="40"/>
    <path class="cls-1" d="M654.57,976c-1.33,0-2.34.38-3.01,1.15-.68.76-1.02,1.69-1.02,2.77s.34,1.96,1.02,2.72c.68.75,1.68,1.13,3.01,1.13s2.35-.37,3.05-1.13c.7-.75,1.05-1.66,1.05-2.72s-.35-2.01-1.05-2.77c-.7-.76-1.72-1.15-3.05-1.15Z"/>
    <path class="cls-1" d="M701.7,999.74c-1.47-3.06-3.57-5.48-6.31-7.27-2.74-1.79-5.99-2.68-9.76-2.68s-6.94.89-9.65,2.68c-2.71,1.79-4.81,4.21-6.29,7.27-1.48,3.06-2.22,6.52-2.22,10.39v.85c0,3.84.74,7.3,2.22,10.37s3.58,5.49,6.31,7.26c2.73,1.78,5.96,2.66,9.71,2.66s6.98-.89,9.71-2.66c2.73-1.77,4.82-4.2,6.29-7.26s2.2-6.53,2.2-10.37v-.85c0-3.87-.73-7.33-2.2-10.39ZM696.99,1010.98c0,2.64-.42,5.08-1.26,7.32-.84,2.24-2.09,4.04-3.75,5.4s-3.76,2.03-6.27,2.03-4.64-.68-6.31-2.03-2.92-3.15-3.76-5.4c-.84-2.24-1.26-4.68-1.26-7.32v-.85c0-2.64.41-5.08,1.24-7.32.83-2.24,2.08-4.05,3.76-5.42,1.68-1.37,3.76-2.05,6.25-2.05s4.65.68,6.32,2.05c1.67,1.37,2.93,3.17,3.77,5.42.84,2.24,1.26,4.68,1.26,7.32v.85Z"/>
  </g>
  <polygon class="cls-1" points="783.33 968.04 783.33 964.16 296.67 965.5 783.33 968.04"/>
  <g>
    <g>
      <path class="cls-3" d="M336.12,614.06c24.11,14.29,43.56,19.42,49.54,20.69,13.66,2.77,27.32,4.27,41.21,4.27,17.51,0,35.22-2.55,51.87-7.89,28.82-9.17,54.87-26.04,77.73-50.13,19.84-20.49,35.02-45.23,44.42-72.32,8.76-24.1,14.3-49.28,16.85-74.89-7.46,4.05-15.16,7.26-23.25,9.59-10.25,2.99-25.83,3.85-28.18,4.05-12.39,15.98-32.23,38.42-54.42,49.28-19.2,9.39-40.35,14.29-61.91,14.1-26.46,0-51.02-6.62-70.88-12.38-110.79-32.88-170.58-122.9-180.39-137.83-52.95-80.44-59.55-168.57-59.55-208.92l-1.28.64v-2.99.42c-.64,1.05-1.05,2.13-1.28,3.19-4.49,21.77-15.38,78.52-11.11,142.12,1.72,24.1,6.62,48,14.52,70.85h0c12.39,33.93,27.96,66.17,46.55,96.66,0,0,60.83,99.02,149.66,151.73v-.22h-.07l-.02.02Z"/>
      <path class="cls-3" d="M260.97,412c41.21,43.74,85.4,61.24,122.12,72.12,20.92,6.18,43.34,11.94,67.03,11.94,19.2.22,38.43-4.05,55.95-12.58,15.8-7.67,30.76-22.63,41.62-35.62-139.41,11.3-244.65-230.45-13.44-398.18,0,0-8.76-6.4-32.23-1.5l-233.76,59.11-53.57,13.85c-17.93,38.61-26.24,81.29-24.33,123.97.64,13.85,5.98,98.38,70.66,167.1v-.22h-.05Z"/>
      <path class="cls-3" d="M847.85,423.53c0-11.72-.86-23.68-2.55-35.42,0,0-1.72-8.97-2.55-13.24-4.71-23.24-12.39-44.4-24.55-59.52-1.28-1.72-2.13-3.85-2.35-5.98,0-2.13.42-4.27,1.72-6.18l16.85-26.04c.22-.42.42-.86.42-1.5,0-.42,0-1.05-.22-1.5,0-.42-.42-.86-.86-1.27-.42-.42-.86-.64-1.28-.64-6.62-1.91-20.26-4.27-30.09,4.27-.42.42-1.08,0-.86-.42,2.77-6.84,12.17-28.81,22.42-37.34,2.13-1.72,1.08-5.12-1.91-5.54-10.89-1.27-21.78,1.05-31.17,6.4-1.08.64-2.13-.64-1.5-1.5,9.59-13.66,52.09-33.29,47.41-68.72-.42-3.19-5.13-3.85-6.62-1.05-7.46,14.51-38.21,20.25-54.23,34.35-1.08.86-2.55-.22-1.91-1.27,3.41-5.76,8.12-15.57,7.68-25.18,0-3.19-4.49-4.27-6.4-1.72-6.4,9.59-27.1,7.04-64.68,14.1-56.56,10.44-56.14,14.29-86.04,25.37-19.65,7.45-50.16,26.04-68.75,37.97-9.39,5.98-9.17,24.76-11.72,35.01-3.19,13.24-3.41,22.63-21.78,33.93-11.72,7.26-16.85,21.33-11.72,33.49,3.19,7.67,10.25,15.37,25.39,22.41,3.85,1.72,4.71.86,1.91-2.35-8.54-9.39-4.71-13.24-1.5-15.15,6.18-3.85,15.38-4.49,31.17-11.11,15.8-6.84,24.33-10.88,30.32-9.39.64,0,1.72.42,2.77.64,23.5,7.26,32.23,68.3,31.37,72.98-.86,34.35-7.26,68.3-18.98,100.29-4.05,11.52-9.17,22.82-14.94,33.49-5.76,10.25-42.48,74.26-115.91,97.74-18.13,5.76-37.16,8.75-56.14,8.75-14.72,0-29.24-1.72-43.56-4.49-24.55-4.49-41.62-15.37-51.87-21.11-64.26-36.9-124.47-82.57-132.35-88.55l-1.91-1.5c.42,1.05.64,1.72.64,1.72,61.27,100.07,167.79,187.15,274.55,252.66l23.69,14.51c6.18,3.85,13.24,5.98,20.5,6.62,7.26.42,14.52-.86,21.12-3.85,0,0,310.41-182.44,310.19-385.8l.86.64-.07-.05.02.02ZM613.44,264.99l-25.63,22.41c-.64.42-3.63-1.91-3.85-2.55-1.91-6.62,2.35-13.66,9.59-15.37l19.65-4.9h.22v.22h0v.22h0l.02-.02Z"/>
    </g>
    <path class="cls-4" d="M565.4,808.89c.22.22.64.42,1.08.64h1.28c133.62-54.62,299.52-162.59,359.71-294.68,17.29-37.75,25.19-96.03,27.96-130.81.42-5.12-1.08-10.03-4.27-14.1-3.21-3.85-7.68-6.4-12.58-7.04-13.44-12.04-92.29,107.08-264.18,160.58,120.28-18.98,186.06-64.01,175.49-27.38-44.66,155.62-204.95,258.91-284.71,312.82h.22v-.02Z"/>
  </g>
</svg>