<?xml version="1.0" encoding="UTF-8"?>
<!DOCTYPE svg PUBLIC "-//W3C//DTD SVG 1.1//EN" "http://www.w3.org/Graphics/SVG/1.1/DTD/svg11.dtd">
<!-- Creator: CorelDRAW 2020 (64 Bit) -->
<svg xmlns="http://www.w3.org/2000/svg" xml:space="preserve" width="300.989mm" height="93.686mm" version="1.1" style="shape-rendering:geometricPrecision; text-rendering:geometricPrecision; image-rendering:optimizeQuality; fill-rule:evenodd; clip-rule:evenodd"
viewBox="0 0 30539.04 9505.61"
 xmlns:xlink="http://www.w3.org/1999/xlink"
 xmlns:xodm="http://www.corel.com/coreldraw/odm/2003">
 <defs>
  <style type="text/css">
   <![CDATA[
    .fil0 {fill:#001D3F;fill-rule:nonzero}
    .fil1 {fill:#274A78;fill-rule:nonzero}
    .fil2 {fill:#727272;fill-rule:nonzero}
   ]]>
  </style>
 </defs>
 <g id="Camada_x0020_1">
  <metadata id="CorelCorpID_0Corel-Layer"/>
  <g id="_2598972333728">
   <g>
    <path class="fil0" d="M4446.95 1096.43c590.43,0 1070.77,480.33 1070.77,1070.77 0,590.44 -480.33,1070.98 -1070.77,1070.98 -590.44,0 -1070.98,-480.33 -1070.98,-1070.98 0,-590.64 480.33,-1070.77 1070.98,-1070.77l0 0zm0 -600c-922.84,0 -1670.98,748.13 -1670.98,1670.98 0,922.84 748.13,1670.98 1670.98,1670.98 922.84,0 1670.98,-748.13 1670.98,-1670.98 0,-922.84 -748.35,-1670.98 -1670.98,-1670.98l0 0z"/>
   </g>
   <g>
    <path class="fil0" d="M4446.95 6648.36c590.43,0 1070.77,480.33 1070.77,1070.77 0,590.44 -480.33,1070.98 -1070.77,1070.98 -590.44,0 -1070.98,-480.33 -1070.98,-1070.98 0,-590.64 480.33,-1070.77 1070.98,-1070.77l0 0zm0 -600.2c-922.84,0 -1670.98,748.13 -1670.98,1670.98 0,922.84 748.13,1670.98 1670.98,1670.98 922.84,0 1670.98,-748.13 1670.98,-1670.98 0,-922.84 -748.13,-1670.98 -1670.98,-1670.98l0 0z"/>
   </g>
   <g>
    <path class="fil0" d="M7222.7 3872.4c590.43,0 1070.98,480.33 1070.98,1070.98 0,590.64 -480.33,1070.98 -1070.98,1070.98l-5551.72 0.01c-590.43,0 -1070.98,-480.33 -1070.98,-1070.98 0,-590.64 480.33,-1070.98 1070.98,-1070.98l5551.93 -0.01 -0.21 0zm0 -600l-5551.72 0c-922.84,0 -1670.98,748.13 -1670.98,1670.77l0 0c0,922.84 748.13,1670.98 1670.98,1670.98l5551.93 0c922.84,0 1670.98,-748.13 1670.98,-1670.98l0 0c0,-922.84 -748.13,-1670.98 -1670.98,-1670.98l0 -0.01 -0.21 0.21z"/>
   </g>
   <g>
    <path class="fil1" d="M4446.95 3872.4c590.43,0 1070.77,480.33 1070.77,1070.77 0,590.44 -480.33,1070.98 -1070.77,1070.98 -590.44,0 -1070.98,-480.33 -1070.98,-1070.98 0,-590.64 480.33,-1070.77 1070.98,-1070.77l0 0zm0 -600c-922.84,0 -1670.98,748.13 -1670.98,1670.98 0,922.84 748.13,1670.98 1670.98,1670.98 922.84,0 1670.98,-748.13 1670.98,-1670.98 0,-922.84 -748.13,-1670.98 -1670.98,-1670.98l0 0z"/>
   </g>
   <g>
    <path class="fil1" d="M10819.18 561.74l398.71 0c31.53,0 47.13,15.59 47.13,47.14l0 604.6c0,26.58 -13.82,48.56 -41.47,66.28 -105.96,63.09 -249.5,94.62 -430.95,94.62 -430.95,0 -646.07,-229.31 -646.07,-687.91 0,-458.6 221.14,-685.76 663.09,-685.76 153.82,0 281.04,30.13 381.69,90.74 29.07,15.24 38.27,34.73 28.36,58.47l-47.14 117.31c-11.33,29.07 -32.6,36.51 -64.13,22.69 -86.83,-36.51 -175.08,-54.93 -264.39,-54.93 -151.34,0 -260.48,35.44 -327.83,106.67 -67.33,71.23 -101,186.06 -101,344.84 0,158.78 32.96,275.72 99.22,346.62 66.28,71.23 169.06,106.67 309.04,106.67 79.38,0 146.71,-12.4 202.37,-37.91l0 -334.55 -205.92 -0.04c-31.54,0 -47.14,-14.53 -47.14,-43.6l0 -115.18c0,-31.53 15.59,-47.14 47.14,-47.14l-0.71 0.38z"/>
    <path class="fil1" d="M11572.99 23.04l423.17 0c186.41,0 324.99,35.45 415.71,106.68 90.73,71.23 136.09,185.01 136.09,340.92 0,222.21 -108.45,356.53 -325.7,402.96l321.09 421.39c11.33,13.82 14.17,26.94 8.5,39.34 -5.66,12.4 -18.06,18.78 -36.86,18.78l-178.61 0.01c-25.15,0 -47.13,-12.75 -65.91,-38.26l-306.92 -405.8 -175.77 -0.02 0 396.93c0,31.53 -15.95,47.14 -47.13,47.14l-168.37 0.01c-31.53,0 -47.13,-15.59 -47.13,-47.13l0 -1237.59c0,-30.13 15.59,-45.36 47.13,-45.36l0.72 0zm215.48 666.99l202.37 0c105.96,0 181.09,-17.72 225.75,-52.81 44.65,-35.09 66.99,-90.73 66.99,-166.21 0,-79.38 -22.33,-136.09 -66.99,-170.12 -44.64,-34.02 -119.42,-51.03 -223.98,-51.03l-204.14 -0.02 0 440.18z"/>
    <path class="fil1" d="M13686.67 1247.5c-87.54,85.77 -218.33,128.65 -391.98,128.65 -173.65,0 -304.79,-42.89 -393.04,-128.65 -88.25,-85.76 -132.19,-210.87 -132.19,-376.02l0 -803.08c0,-30.13 15.59,-45.36 47.13,-45.36l170.12 0c31.53,0 47.14,15.25 47.14,45.36l0 780.39c0,95.7 20.91,167.99 62.38,216.19 41.47,48.56 107.73,72.66 198.47,72.66 174.01,0 260.84,-96.41 260.84,-289.2l0 -780.03c0,-30.13 15.24,-45.36 45.35,-45.36l171.9 0c30.13,0 45.35,15.25 45.35,45.36l0 803.08c0,165.16 -43.93,290.26 -131.49,376.02z"/>
    <path class="fil1" d="M14305.47 1353.48l-168.34 0c-31.54,0 -47.14,-15.59 -47.14,-47.13l0 -1237.94c0,-30.13 15.24,-45.36 45.35,-45.36l410.05 0c190.31,0 331.37,37.21 423.15,111.63 91.78,74.42 137.88,194.56 137.88,360.79 0,166.23 -46.07,288.13 -137.88,361.85 -91.78,73.71 -233.19,110.58 -423.15,110.58l-192.79 0 0 338.1c0,31.53 -15.96,47.13 -47.14,47.13l0 0.36zm47.14 -612.42l190.66 0c104.56,0 180.02,-18.78 226.81,-56.72 46.43,-37.92 69.83,-100.65 69.83,-188.89 0,-88.25 -23.4,-151.34 -69.83,-188.9 -46.78,-37.92 -122.27,-56.71 -226.81,-56.71l-190.66 0.01 0 491.21z"/>
    <path class="fil1" d="M15442.04 174.01c102.78,-115.89 247.72,-174.01 435.55,-174.01 187.84,0 332.8,58.12 435.56,174.01 102.78,115.89 154.16,287.06 154.16,513.89 0,226.83 -51.38,397.64 -154.16,513.19 -102.78,115.18 -248.43,172.94 -437.33,172.94 -188.89,0 -332.43,-57.76 -434.5,-174.01 -102.07,-115.9 -153.1,-286.72 -153.1,-512.12 0,-225.39 51.38,-398 154.16,-513.89l-0.33 0zm435.57 969.67c212.99,0 319.32,-151.7 319.32,-455.42 0,-303.72 -106.31,-457.17 -319.32,-457.17 -213.01,0 -321.08,152.39 -321.08,457.17 0,304.79 107.02,455.42 321.08,455.42z"/>
   </g>
   <g>
    <path class="fil0" d="M13278.09 6987.4c-92,0 -165.44,-42.72 -220.59,-128.59l-1443.07 -2389.82 0 3667.21c0,177.87 -88.81,266.46 -266.46,266.46l-992.63 0c-177.86,0 -266.46,-88.81 -266.46,-266.46l0 -5955.77c0,-177.65 88.82,-266.46 266.46,-266.46l965.06 0c140.8,0 244.99,52.2 312.57,156.17l1645.12 2748.26 1645.11 -2748.26c55.14,-104.19 156.17,-156.17 303.31,-156.17l965.05 0c183.75,0 275.73,88.81 275.73,266.46l0 5956.01c0,177.86 -91.99,266.46 -275.73,266.46l-992.63 -0.01c-171.54,0 -257.42,-88.82 -257.42,-266.47l0 -3667.21 -1452.11 2389.82c-55.14,85.89 -125.66,128.59 -211.32,128.59l0 -0.22z"/>
    <path class="fil0" d="M20851.51 6987.4c-91.99,0 -165.44,-42.72 -220.59,-128.59l-1443.06 -2389.82 0 3667.21c0,177.87 -88.82,266.46 -266.46,266.46l-992.63 0c-177.87,0 -266.46,-88.81 -266.46,-266.46l0 -5955.77c0,-177.65 88.81,-266.46 266.46,-266.46l965.06 0c140.8,0 244.99,52.2 312.57,156.17l1645.11 2748.26 1645.12 -2748.26c55.13,-104.19 156.17,-156.17 303.3,-156.17l965.06 0c183.74,0 275.73,88.81 275.73,266.46l0 5956.01c0,177.86 -92,266.46 -275.73,266.46l-992.64 -0.01c-171.53,0 -257.42,-88.82 -257.42,-266.47l0 -3667.21 -1452.11 2389.82c-55.14,85.89 -125.66,128.59 -211.32,128.59l0 -0.22z"/>
    <path class="fil0" d="M27928.63 8402.89l-2426.42 0c-177.86,0 -266.46,-88.82 -266.46,-266.47l0 -5955.99c0,-177.65 88.82,-266.46 266.46,-266.46l2343.71 0c857.94,0 1488.95,134.92 1893.5,404.33 404.33,269.62 606.6,707.63 606.6,1314.24 0,349.18 -81.36,637.34 -243.63,864.02 -162.49,226.68 -366.14,379.93 -611.13,459.47 698.6,208.38 1047.78,723 1047.78,1544.09 0,1268.35 -870.13,1902.53 -2610.41,1902.53l-0.01 0.23zm-1139.76 -3878.76l1029.47 0c361.39,0 618.81,-56.5 772.06,-169.97 153,-113.23 229.85,-295.61 229.85,-546.93 0,-251.33 -75.04,-421.28 -225.11,-528.41 -150.29,-107.12 -412.23,-160.92 -785.83,-160.92l-1020.21 0.01 0 1406.22 -0.23 0zm0 2674.81l1057.05 0c422.87,0 716.9,-58.1 882.34,-174.7 165.44,-116.4 248.16,-318.45 248.16,-606.61 0,-288.15 -84.3,-473.26 -252.67,-592.81 -168.61,-119.55 -458.12,-179.22 -868.55,-179.22l-1066.09 -0.01 0 1553.36 -0.23 0z"/>
   </g>
   <g>
    <g>
     <path class="fil2" d="M12057.76 9264.91c-5.65,0 -10.17,-2.71 -13.33,-8.36l-133.12 -216.07 0 336.31c0,9.04 -4.53,13.57 -13.57,13.57l-45.41 0c-9.5,0 -14.25,-4.53 -14.25,-13.57l0 -449.54c0,-9.04 4.75,-13.56 14.25,-13.56l45.41 0.01c7.23,0 12.66,2.71 16.27,8.14l143.98 233.47 143.97 -233.47c3.62,-5.43 9.04,-8.14 16.27,-8.14l46.1 0c9.04,0 13.56,4.52 13.56,13.56l0 449.54c0,9.04 -4.52,13.57 -13.56,13.57l-46.1 -0.01c-9.04,0 -13.57,-4.53 -13.57,-13.57l0 -336.31 -133.12 216.07c-3.16,5.65 -7.46,8.36 -13.33,8.36l-0.46 0z"/>
     <path class="fil2" d="M12643.57 8906.23c66.89,0 118.21,21.01 154.36,63.05 35.94,42.04 53.8,102.83 53.8,182.4 0,79.56 -17.86,141.02 -53.8,182.61 -35.94,41.81 -87.47,62.6 -154.36,62.6 -66.89,0 -117.75,-20.79 -153.45,-62.6 -35.7,-41.8 -54.01,-102.6 -54.01,-182.61 0,-80.01 18.08,-140.35 54.01,-182.4 35.93,-42.05 87.01,-63.05 153.45,-63.05zm0 425.13c88.15,0 132.22,-59.89 132.22,-179.67 0,-119.79 -44.08,-179.68 -132.22,-179.68 -88.13,0 -131.53,59.89 -131.53,179.68 0,119.78 43.84,179.67 131.53,179.67z"/>
     <path class="fil2" d="M13198.2 9390.35l-173.56 0c-9.5,0 -14.25,-4.53 -14.25,-13.57l0 -449.54c0,-9.04 4.75,-13.56 14.25,-13.56l169.49 0.01c61.03,0 105.77,10.18 134.71,30.05 28.69,20.11 43.16,51.53 43.16,94.03 0,28.92 -6.33,51.76 -18.98,68.02 -12.66,16.5 -28.7,27.35 -48.14,33 55.59,12.65 83.4,51.08 83.4,115.26 0,47.91 -15.59,82.72 -46.33,104.19 -30.97,21.47 -78.89,32.1 -143.52,32.1l-0.23 0zm-113.9 -275.96l111.19 0c37.97,0 64.64,-5.43 80.24,-16.27 15.58,-10.85 23.51,-28.93 23.51,-54.24 0,-25.3 -8.14,-41.58 -24.18,-51.76 -16.05,-10.17 -43.4,-15.13 -82.28,-15.13l-108.48 -0.02 0 137.64 0 -0.22zm0 212.22l109.15 0c44.76,0 76.17,-5.43 94.03,-16.5 17.86,-11.07 26.9,-31.19 26.9,-60.12 0,-27.12 -8.59,-46.33 -25.31,-58.09 -16.95,-11.53 -47.01,-17.18 -90.63,-17.18l-113.9 0 0 151.88 -0.23 0z"/>
     <path class="fil2" d="M13552.13 9376.79l0 -449.54c0,-9.04 4.29,-13.56 12.89,-13.56l47.46 0.01c9.5,0 14.24,4.52 14.24,13.56l0 449.54c0,9.04 -4.74,13.57 -14.24,13.57l-47.46 -0.01c-8.59,0 -12.89,-4.53 -12.89,-13.57z"/>
     <path class="fil2" d="M13884.37 8927.26l0 395.29 195.27 0c9.5,0 14.25,4.07 14.25,12.21l0 42.04c0,9.04 -4.75,13.57 -14.25,13.57l-255.62 0c-9.49,0 -14.24,-4.53 -14.24,-13.57l0 -449.54c0,-9.04 4.75,-13.56 14.24,-13.56l46.78 0.01c9.04,0 13.57,4.52 13.57,13.56z"/>
     <path class="fil2" d="M14249.82 9376.79l0 -449.54c0,-9.04 4.29,-13.56 12.88,-13.56l47.46 0.01c9.5,0 14.25,4.52 14.25,13.56l0 449.54c0,9.04 -4.75,13.57 -14.25,13.57l-47.46 -0.01c-8.58,0 -12.88,-4.53 -12.88,-13.57z"/>
     <path class="fil2" d="M14645.1 9390.35l-123.39 0c-9.5,0 -14.25,-4.53 -14.25,-13.57l0 -449.54c0,-9.04 4.53,-13.56 13.57,-13.56l122.73 0.01c79.1,0 138.31,17.86 178.1,53.8 39.55,35.94 59.2,95.15 59.2,178.1 0,88.59 -19.65,151.66 -58.76,188.94 -39.09,37.29 -98.08,55.82 -177.18,55.82l-0.02 -0.01zm-2.7 -408.85l-60.35 0 0 341.05 61.03 0c55.13,0 96.05,-12.65 122.5,-37.97 26.44,-25.3 39.55,-71.64 39.55,-138.99 0,-61.48 -13.33,-104.19 -40.01,-128.15 -26.66,-23.96 -67.56,-35.94 -122.71,-35.94l-0.01 0z"/>
     <path class="fil2" d="M15167.42 8913.7l59.66 0c5.43,0 9.04,0.9 11.29,2.93 2.04,2.04 3.85,5.65 5.66,10.4l164.75 448.18c1.82,4.07 1.82,7.45 -0.45,10.4 -2.04,2.93 -5.43,4.52 -9.72,4.52l-50.85 -0.01c-7.23,0 -12.65,-4.07 -16.27,-12.2l-37.29 -102.39 -193.25 0 -35.03 102.39c-2.93,8.13 -8.13,12.2 -15.58,12.2l-54.01 0c-4.75,0 -8.14,-1.58 -10.18,-4.75 -2.04,-3.16 -2.49,-7 -1.14,-11.52l164.76 -448.18c1.82,-4.52 3.85,-7.68 6.11,-9.5 2.25,-1.81 6.11,-2.71 11.53,-2.71l0 0.23zm-44.31 296.97l155.27 0 -76.61 -223.07 -1.36 -0.01 -77.29 223.07 0 0.01z"/>
     <path class="fil2" d="M15691.3 9390.35l-123.4 0c-9.5,0 -14.25,-4.53 -14.25,-13.57l0 -449.54c0,-9.04 4.53,-13.56 13.57,-13.56l122.73 0.01c79.11,0 138.31,17.86 178.1,53.8 39.55,35.94 59.21,95.15 59.21,178.1 0,88.59 -19.66,151.66 -58.76,188.94 -39.1,37.29 -98.08,55.82 -177.19,55.82l-0.01 -0.01zm-2.71 -408.85l-60.35 0 0 341.05 61.03 0c55.14,0 96.05,-12.65 122.5,-37.97 26.45,-25.3 39.56,-71.64 39.56,-138.99 0,-61.48 -13.34,-104.19 -40.01,-128.15 -26.67,-23.96 -67.57,-35.94 -122.72,-35.94l-0.01 0z"/>
     <path class="fil2" d="M16352.38 9178.8l-192.57 0 0 145.77 202.73 0c9.04,0 13.56,4.29 13.56,12.89l0 38.65c0,9.5 -4.52,14.25 -13.56,14.25l-262.4 0c-9.49,0 -14.24,-4.53 -14.24,-13.57l0 -449.54c0,-9.04 4.52,-13.56 13.56,-13.56l260.37 0.01c9.5,0 14.24,4.52 14.24,13.56l0 38.65c0,9.05 -4.74,13.57 -14.24,13.57l-200.02 -0.01 0 135.61 192.57 0c8.58,0 12.89,4.74 12.89,14.24l0 35.26c0,9.5 -4.3,14.25 -12.89,14.25l0 -0.01z"/>
    </g>
    <path class="fil2" d="M16887.45 9300.85c-26.67,0 -48.82,-9.04 -66.45,-27.12 -17.63,-18.09 -26.45,-40.69 -26.45,-67.81 0,-27.11 8.82,-49.49 26.67,-67.34 17.86,-17.85 40.01,-26.9 66.89,-26.9 26.89,0 49.05,9.04 66.89,26.9 17.85,17.86 26.67,40.23 26.67,67.34 0,27.12 -8.82,49.72 -26.67,67.81 -17.86,18.08 -40.46,27.12 -67.57,27.12l0.01 0z"/>
    <g>
     <path class="fil2" d="M17619.83 9264.91c-5.65,0 -10.18,-2.71 -13.33,-8.36l-133.12 -216.07 0 336.31c0,9.04 -4.53,13.57 -13.57,13.57l-45.43 0c-9.5,0 -14.24,-4.53 -14.24,-13.57l0 -449.54c0,-9.04 4.74,-13.56 14.24,-13.56l45.43 0.01c7.23,0 12.65,2.71 16.27,8.14l143.97 233.47 143.98 -233.47c3.61,-5.43 9.04,-8.14 16.27,-8.14l46.09 0c9.05,0 13.57,4.52 13.57,13.56l0 449.54c0,9.04 -4.52,13.57 -13.57,13.57l-46.1 -0.01c-9.05,0 -13.57,-4.53 -13.57,-13.57l0 -336.31 -133.12 216.07c-3.17,5.65 -7.46,8.36 -13.33,8.36l-0.45 0z"/>
     <path class="fil2" d="M18335.59 9352.38c-30.51,30.73 -76.38,46.09 -137.41,46.09 -61.02,0 -106.9,-15.36 -137.41,-46.09 -30.51,-30.74 -45.87,-74.82 -45.87,-132.22l0 -292.91c0,-9.04 4.52,-13.56 13.56,-13.56l46.78 0c9.5,0 14.25,4.52 14.25,13.56l0 286.8c0,77.75 36.16,116.62 108.48,116.62 72.32,0 109.16,-38.87 109.16,-116.62l0 -286.8c0,-9.04 4.53,-13.56 13.57,-13.56l47.45 0c8.58,0 12.88,4.52 12.88,13.56l0 292.91c0,57.41 -15.14,101.47 -45.65,132.22l0.21 0z"/>
     <path class="fil2" d="M18632.11 8927.26l0 395.29 195.27 0c9.5,0 14.25,4.07 14.25,12.21l0 42.04c0,9.04 -4.75,13.57 -14.25,13.57l-255.61 0c-9.5,0 -14.25,-4.53 -14.25,-13.57l0 -449.54c0,-9.04 4.75,-13.56 14.25,-13.56l46.79 0.01c9.04,0 13.56,4.52 13.56,13.56l-0.01 0z"/>
     <path class="fil2" d="M18904.68 8967.93l0 -40.69c0,-9.04 4.53,-13.56 13.57,-13.56l310.54 0.01c9.5,0 14.25,4.52 14.25,13.56l0 40.69c0,9.05 -4.75,13.57 -14.25,13.57l-117.3 -0.01 0 395.29c0,9.04 -4.75,13.57 -14.25,13.57l-46.77 0c-9.04,0 -13.57,-4.53 -13.57,-13.57l0 -395.29 -117.97 0c-9.5,0 -14.25,-4.53 -14.25,-13.57z"/>
     <path class="fil2" d="M19390.83 9376.79l0 -449.54c0,-9.04 4.29,-13.56 12.89,-13.56l47.45 0.01c9.5,0 14.25,4.52 14.25,13.56l0 449.54c0,9.04 -4.75,13.57 -14.25,13.57l-47.45 -0.01c-8.59,0 -12.89,-4.53 -12.89,-13.57z"/>
     <path class="fil2" d="M19708.82 9390.35l-46.1 0c-9.5,0 -14.25,-4.53 -14.25,-13.57l0 -449.54c0,-9.04 4.53,-13.56 13.57,-13.56l138.32 0.01c68.7,0 119.32,13.11 151.65,39.33 32.33,26.22 48.6,68.93 48.6,128.14 0,59.21 -16.27,101.71 -48.6,127.7 -32.31,25.98 -82.95,39.09 -151.65,39.09l-77.29 0 0 128.83c0,9.04 -4.75,13.57 -14.25,13.57zm14.25 -208.16l77.29 0c43.84,0 75.48,-7.68 94.92,-23.06 19.43,-15.36 29.15,-41.35 29.15,-77.97 0,-36.62 -9.72,-63.27 -29.15,-78.65 -19.43,-15.36 -51.08,-23.05 -94.92,-23.05l-77.29 0.01 0 202.73z"/>
     <path class="fil2" d="M20175.98 8913.7l144.41 0c66,0 114.81,12.65 146.68,37.97 31.87,25.3 47.91,64.86 47.91,118.65 0,83.63 -42.94,132.21 -128.82,145.77l128.14 157.3c3.17,3.61 3.85,7.22 2.49,11.07 -1.58,3.85 -4.97,5.88 -10.4,5.88l-50.84 0.01c-7.68,0 -14.24,-3.62 -20.11,-11.07l-124.98 -154.36 -73.91 -0.01 0 151.88c0,9.04 -4.75,13.57 -14.25,13.57l-46.1 0c-9.49,0 -14.24,-4.53 -14.24,-13.57l0 -449.54c0,-9.04 4.75,-13.56 14.24,-13.56l-0.22 0.01zm60.34 246.11l81.36 0c44.31,0 75.71,-7 94.47,-21.24 18.77,-14.25 28.25,-37.06 28.25,-68.25 0,-31.2 -9.5,-55.82 -28.47,-69.85 -18.98,-14.01 -49.94,-21.01 -92.89,-21.01l-82.72 0 0 180.35z"/>
     <path class="fil2" d="M20857.41 8906.23c66.89,0 118.2,21.01 154.35,63.05 35.95,42.04 53.8,102.83 53.8,182.4 0,79.56 -17.85,141.02 -53.8,182.61 -35.94,41.81 -87.46,62.6 -154.35,62.6 -66.89,0 -117.76,-20.79 -153.46,-62.6 -35.69,-41.8 -54.01,-102.6 -54.01,-182.61 0,-80.01 18.08,-140.35 54.01,-182.4 35.93,-42.05 87.01,-63.05 153.46,-63.05zm0 425.13c88.14,0 132.21,-59.89 132.21,-179.67 0,-119.79 -44.08,-179.68 -132.21,-179.68 -88.14,0 -131.54,59.89 -131.54,179.68 0,119.78 43.85,179.67 131.54,179.67z"/>
     <path class="fil2" d="M21168.61 8967.93l0 -40.69c0,-9.04 4.52,-13.56 13.56,-13.56l310.54 0.01c9.5,0 14.25,4.52 14.25,13.56l0 40.69c0,9.05 -4.75,13.57 -14.25,13.57l-117.3 -0.01 0 395.29c0,9.04 -4.74,13.57 -14.24,13.57l-46.78 0c-9.04,0 -13.57,-4.53 -13.57,-13.57l0 -395.29 -117.97 0c-9.49,0 -14.24,-4.53 -14.24,-13.57z"/>
     <path class="fil2" d="M21916.48 9178.8l-192.57 0 0 145.77 202.72 0c9.05,0 13.57,4.29 13.57,12.89l0 38.65c0,9.5 -4.52,14.25 -13.57,14.25l-262.39 0c-9.5,0 -14.25,-4.53 -14.25,-13.57l0 -449.54c0,-9.04 4.53,-13.56 13.57,-13.56l260.37 0.01c9.49,0 14.24,4.52 14.24,13.56l0 38.65c0,9.05 -4.75,13.57 -14.24,13.57l-200.02 -0.01 0 135.61 192.57 0c8.58,0 12.88,4.74 12.88,14.24l0 35.26c0,9.5 -4.29,14.25 -12.88,14.25l0 -0.01z"/>
     <path class="fil2" d="M22302.27 9330.68c32.54,0 62.38,-7.46 89.5,-22.37 8.13,-3.17 14.24,-0.46 18.3,8.13l15.59 35.27c2.71,5.87 -0.46,11.07 -9.5,15.58 -32.54,19.89 -74.14,29.83 -124.76,29.83l-1.35 0c26.22,14.93 39.33,33.45 39.33,55.6 0,17.18 -6.33,30.29 -18.98,39.33 -12.66,9.04 -30.74,13.57 -54.24,13.57 -14.01,0 -23.51,-1.14 -28.47,-3.39 -5.43,-2.25 -8.14,-5.43 -8.14,-9.5l0 -21.01c0,-4.98 2.93,-7.46 8.82,-7.46l19.65 0c23.06,0 34.58,-7.46 34.58,-22.38 0,-18.54 -14.01,-35.03 -42.04,-49.49 -53.34,-9.05 -94.24,-34.13 -122.94,-75.28 -28.69,-41.12 -43.16,-96.28 -43.16,-165.43 0,-79.11 18.76,-139.91 55.82,-182.17 37.29,-42.27 89.95,-63.28 157.74,-63.28 49.72,0 90.86,9.5 123.4,28.47 8.14,4.53 11.07,9.95 8.82,16.27l-14.93 34.58c-3.16,8.58 -9.26,10.84 -18.3,6.78 -26.22,-12.66 -55.38,-18.99 -87.47,-18.99 -99.44,0 -149.16,59.44 -149.16,178.33 0,118.88 50.62,178.99 151.88,178.99l0 0.03z"/>
     <path class="fil2" d="M22716.1 8913.7l61.24 0c5.66,0 9.5,0.9 11.53,2.93 2.04,2.04 4.07,5.65 5.88,10.4l166.1 448.18c1.82,4.07 1.82,7.45 -0.22,10.4 -2.04,2.93 -5.43,4.52 -9.94,4.52l-50.85 -0.01c-7.22,0 -12.65,-4.07 -16.27,-12.2l-37.29 -102.39 -197.08 0 -35.03 102.39c-2.93,8.13 -8.14,12.2 -15.59,12.2l-54.01 0c-4.75,0 -8.14,-1.58 -10.18,-4.75 -2.04,-3.16 -2.48,-7 -1.13,-11.52l164.75 -448.18c1.82,-4.52 3.85,-7.68 6.34,-9.5 2.25,-1.81 6.33,-2.71 11.75,-2.71l0 0.23zm148.26 -84.08c0,15.36 -4.3,27.8 -12.66,37.74 -8.36,9.72 -21.01,14.47 -38.19,14.47 -17.18,0 -36.61,-4.3 -59.89,-12.66l-19.89 -6.54c-35.94,-11.3 -54.69,-10.85 -55.82,1.36l-0.68 5.87c-0.9,6.55 -5.43,9.72 -13.56,9.72l-18.31 -0.01c-7.68,0 -11.53,-5.43 -11.53,-16.26 0,-15.37 4.07,-28.02 12.43,-37.74 8.37,-9.72 21.02,-14.69 38.42,-14.69 17.4,0 36.61,5.43 58.31,16.26l21.69 8.14c16.72,4.07 29.61,6.11 38.87,6.11 9.27,0 14.47,-4.53 16.05,-13.57l0.68 -6.78c1.36,-6.33 6.11,-9.49 14.24,-9.49l17.63 -0.01c8.14,0 12.21,5.87 12.21,17.62l0 0.46zm-193.25 381.05l155.28 0 -76.62 -223.07 -1.36 -0.01 -77.29 223.07 0 0.01z"/>
     <path class="fil2" d="M23276.59 8906.23c66.89,0 118.2,21.01 154.36,63.05 35.94,42.04 53.8,102.83 53.8,182.4 0,79.56 -17.86,141.02 -53.8,182.61 -35.94,41.81 -87.47,62.6 -154.36,62.6 -66.89,0 -117.76,-20.79 -153.45,-62.6 -35.7,-41.8 -54.02,-102.6 -54.02,-182.61 0,-80.01 18.09,-140.35 54.02,-182.4 35.93,-42.05 87.01,-63.05 153.45,-63.05zm0 425.13c88.15,0 132.22,-59.89 132.22,-179.67 0,-119.79 -44.08,-179.68 -132.22,-179.68 -88.14,0 -131.54,59.89 -131.54,179.68 0,119.78 43.85,179.67 131.54,179.67z"/>
    </g>
    <path class="fil2" d="M23996.1 9300.85c-26.66,0 -48.81,-9.04 -66.45,-27.12 -17.62,-18.09 -26.44,-40.69 -26.44,-67.81 0,-27.11 8.82,-49.49 26.66,-67.34 17.86,-17.85 40.01,-26.9 66.89,-26.9 26.89,0 49.06,9.04 66.89,26.9 17.85,17.86 26.67,40.23 26.67,67.34 0,27.12 -8.82,49.72 -26.67,67.81 -17.86,18.08 -40.45,27.12 -67.57,27.12l0.01 0z"/>
    <g>
     <path class="fil2" d="M24696.61 9390.35l-173.57 0c-9.5,0 -14.25,-4.53 -14.25,-13.57l0 -449.54c0,-9.04 4.75,-13.56 14.25,-13.56l169.5 0.01c61.03,0 105.77,10.18 134.71,30.05 28.69,20.11 43.16,51.53 43.16,94.03 0,28.92 -6.33,51.76 -18.98,68.02 -12.66,16.5 -28.7,27.35 -48.14,33 55.6,12.65 83.4,51.08 83.4,115.26 0,47.91 -15.59,82.72 -46.33,104.19 -30.97,21.47 -78.89,32.1 -143.52,32.1l-0.23 0zm-113.91 -275.96l111.19 0c37.97,0 64.64,-5.43 80.24,-16.27 15.58,-10.85 23.51,-28.93 23.51,-54.24 0,-25.3 -8.14,-41.58 -24.18,-51.76 -16.05,-10.17 -43.4,-15.13 -82.28,-15.13l-108.48 -0.02 0 137.64 0 -0.22zm0 212.22l109.16 0c44.76,0 76.17,-5.43 94.03,-16.5 17.86,-11.07 26.9,-31.19 26.9,-60.12 0,-27.12 -8.59,-46.33 -25.31,-58.09 -16.95,-11.53 -47.01,-17.18 -90.63,-17.18l-113.91 0 0 151.88 -0.23 0z"/>
     <path class="fil2" d="M25312.27 9178.8l-192.57 0 0 145.77 202.72 0c9.04,0 13.57,4.29 13.57,12.89l0 38.65c0,9.5 -4.53,14.25 -13.57,14.25l-262.39 0c-9.5,0 -14.25,-4.53 -14.25,-13.57l0 -449.54c0,-9.04 4.53,-13.56 13.57,-13.56l260.36 0.01c9.5,0 14.25,4.52 14.25,13.56l0 38.65c0,9.05 -4.75,13.57 -14.25,13.57l-200.01 -0.01 0 135.61 192.57 0c8.58,0 12.88,4.74 12.88,14.24l0 35.26c0,9.5 -4.29,14.25 -12.88,14.25l0 -0.01z"/>
     <path class="fil2" d="M25862.14 8926.58l0 450.21c0,9.04 -4.53,13.57 -13.57,13.57l-47.69 0c-7.68,0 -13.79,-3.39 -18.31,-9.95l-217.41 -342.62 0 339.01c0,9.04 -4.29,13.57 -12.88,13.57l-45.43 0c-9.5,0 -14.25,-4.53 -14.25,-13.57l0 -449.54c0,-9.04 4.75,-13.56 14.25,-13.56l47.01 0.01c8.58,0 14.91,3.16 18.98,9.26l216.75 342.85 0 -338.56c0,-9.04 4.52,-13.56 13.56,-13.56l45.42 0c9.04,0 13.57,4.29 13.57,12.88z"/>
     <path class="fil2" d="M26308.27 9178.8l-192.56 0 0 145.77 202.73 0c9.04,0 13.57,4.29 13.57,12.89l0 38.65c0,9.5 -4.53,14.25 -13.57,14.25l-262.39 0c-9.5,0 -14.25,-4.53 -14.25,-13.57l0 -449.54c0,-9.04 4.53,-13.56 13.57,-13.56l260.36 0.01c9.5,0 14.25,4.52 14.25,13.56l0 38.65c0,9.05 -4.75,13.57 -14.25,13.57l-200.02 -0.01 0 135.61 192.56 0c8.59,0 12.89,4.74 12.89,14.24l0 35.26c0,9.5 -4.29,14.25 -12.89,14.25l0 -0.01z"/>
     <path class="fil2" d="M26757.13 9186.26l-193.92 0 0 190.53c0,9.04 -4.75,13.57 -14.25,13.57l-46.1 0c-9.49,0 -14.24,-4.53 -14.24,-13.57l0 -449.54c0,-9.04 4.75,-13.56 14.24,-13.56l259.69 0.01c8.58,0 12.88,4.29 12.88,12.88l0 38.65c0,9.05 -4.29,13.57 -12.88,13.57l-199.34 0 0 143.74 193.92 -0.01c9.04,0 13.57,4.75 13.57,14.25l0 36.61c0,8.59 -4.53,12.89 -13.57,12.89z"/>
     <path class="fil2" d="M26931.38 9376.79l0 -449.54c0,-9.04 4.3,-13.56 12.89,-13.56l47.46 0.01c9.5,0 14.25,4.52 14.25,13.56l0 449.54c0,9.04 -4.75,13.57 -14.25,13.57l-47.46 -0.01c-8.58,0 -12.89,-4.53 -12.89,-13.57zm13.56 -509.87l34.58 -58.99c4.07,-6.77 9.72,-10.17 16.95,-10.17l57.63 0c4.53,0 7.23,1.81 8.14,5.43 0.9,3.61 -0.22,6.77 -3.39,9.49l-61.7 57.64c-4.07,5.43 -10.18,8.14 -18.31,8.14l-25.76 -0.01c-4.07,0 -6.78,-1.14 -8.14,-3.85 -1.36,-2.49 -1.36,-4.97 0,-7.68z"/>
     <path class="fil2" d="M27397.87 9330.68c32.54,0 62.38,-7.46 89.49,-22.37 8.14,-3.17 14.25,-0.46 18.31,8.13l15.58 35.27c2.71,5.87 -0.45,11.07 -9.49,15.58 -32.55,19.89 -74.14,29.83 -124.76,29.83 -69.16,0 -122.51,-21.01 -160.24,-63.05 -37.74,-42.04 -56.5,-102.83 -56.5,-182.39 0,-79.57 18.76,-139.91 55.82,-182.17 37.29,-42.27 89.95,-63.28 157.74,-63.28 49.72,0 90.86,9.5 123.4,28.47 8.14,4.53 11.07,9.95 8.82,16.27l-14.93 34.58c-3.16,8.58 -9.26,10.85 -18.3,6.78 -26.22,-12.66 -55.38,-18.99 -87.47,-18.99 -99.44,0 -149.16,59.44 -149.16,178.33 0,118.88 50.62,178.99 151.88,178.99l-0.2 0.02z"/>
     <path class="fil2" d="M27675.87 9376.79l0 -449.54c0,-9.04 4.29,-13.56 12.88,-13.56l47.46 0.01c9.5,0 14.25,4.52 14.25,13.56l0 449.54c0,9.04 -4.75,13.57 -14.25,13.57l-47.46 -0.01c-8.58,0 -12.88,-4.53 -12.88,-13.57z"/>
     <path class="fil2" d="M28120.64 8906.23c66.89,0 118.21,21.01 154.36,63.05 35.94,42.04 53.8,102.83 53.8,182.4 0,79.56 -17.86,141.02 -53.8,182.61 -35.94,41.81 -87.47,62.6 -154.36,62.6 -66.89,0 -117.76,-20.79 -153.45,-62.6 -35.7,-41.8 -54.02,-102.6 -54.02,-182.61 0,-80.01 18.09,-140.35 54.02,-182.4 35.93,-42.05 87.01,-63.05 153.45,-63.05zm0 425.13c88.15,0 132.22,-59.89 132.22,-179.67 0,-119.79 -44.08,-179.68 -132.22,-179.68 -88.14,0 -131.53,59.89 -131.53,179.68 0,119.78 43.84,179.67 131.53,179.67z"/>
     <path class="fil2" d="M28789.85 9265.59c0,42.94 -16.04,75.48 -48.14,97.63 -32.09,22.15 -75.7,33.22 -130.86,33.22 -59.67,0 -106.22,-8.13 -139.68,-24.4 -8.58,-4.07 -11.75,-9.26 -9.5,-15.59l13.57 -36.61c3.17,-9.04 8.59,-11.75 16.27,-8.13 32.54,13.11 70.06,19.65 112.55,19.65 34.36,0 61.48,-5.65 81.36,-17.18 19.89,-11.52 29.83,-28.01 29.83,-49.72 0,-11.29 -2.49,-21.25 -7.46,-29.83 -4.97,-8.59 -13.56,-16.5 -25.54,-23.96 -11.97,-7.46 -22.37,-13.11 -31.41,-16.72 -9.05,-3.85 -23.06,-9.5 -42.27,-17.4 -17.86,-7.46 -32.09,-13.34 -42.26,-17.4 -10.17,-4.07 -22.37,-10.63 -36.39,-19.22 -14.01,-8.59 -24.62,-17.41 -31.87,-26.45 -7.22,-9.04 -13.57,-20.56 -18.98,-34.35 -5.43,-13.79 -8.14,-29.16 -8.14,-46.34 0,-40.69 14.01,-71.87 41.58,-93.56 27.8,-21.7 69.61,-32.54 125.89,-32.54 48.81,0 89.72,7.22 122.71,21.69 8.14,3.61 11.07,9.04 8.82,16.27l-12.89 35.26c-3.16,8.14 -9.04,10.62 -17.62,7.46 -28.93,-10.4 -60.57,-15.59 -94.93,-15.59 -34.35,0 -59.44,5.21 -75.26,15.59 -15.82,10.4 -23.72,26.22 -23.72,47.91 0,13.79 4.07,25.76 12.43,35.71 8.36,9.94 17.86,17.62 28.69,22.15 10.85,4.75 25.99,11.29 45.42,19.89 2.04,0.9 3.61,1.58 4.75,2.04 1.14,0.45 2.25,0.9 3.85,1.58 1.36,0.68 2.71,1.14 4.07,1.82 47.69,19.65 80,35.94 96.73,49.05 32.32,24.62 48.37,57.41 48.37,98.54l0.03 -0.49z"/>
    </g>
   </g>
  </g>
 </g>
</svg>
