<?xml version="1.0" encoding="UTF-8"?>
<svg id="Camada_2" data-name="Camada 2" xmlns="http://www.w3.org/2000/svg" viewBox="0 0 853.2 265.57">
  <defs>
    <style>
      .cls-1 {
        fill: #d2d3d5;
      }

      .cls-2 {
        fill: #fefefe;
      }
    </style>
  </defs>
  <g id="Camada_1-2" data-name="Camada 1">
    <g id="Camada_1-3" data-name="Camada_1">
      <g id="_2598972333728" data-name=" 2598972333728">
        <path class="cls-2" d="M124.24,30.63c16.5,0,29.92,13.42,29.92,29.92s-13.42,29.92-29.92,29.92-29.92-13.42-29.92-29.92,13.42-29.92,29.92-29.92h0ZM124.24,13.87c-25.78,0-46.68,20.9-46.68,46.68s20.9,46.68,46.68,46.68,46.68-20.9,46.68-46.68-20.91-46.68-46.68-46.68h0Z"/>
        <path class="cls-2" d="M124.24,185.74c16.5,0,29.92,13.42,29.92,29.92s-13.42,29.92-29.92,29.92-29.92-13.42-29.92-29.92,13.42-29.92,29.92-29.92h0ZM124.24,168.97c-25.78,0-46.68,20.9-46.68,46.68s20.9,46.68,46.68,46.68,46.68-20.9,46.68-46.68-20.9-46.68-46.68-46.68h0Z"/>
        <path class="cls-2" d="M201.79,108.19c16.5,0,29.92,13.42,29.92,29.92s-13.42,29.92-29.92,29.92H46.68c-16.5,0-29.92-13.42-29.92-29.92s13.42-29.92,29.92-29.92h155.11s0,0,0,0h0ZM201.79,91.42H46.68C20.9,91.42,0,112.33,0,138.1h0c0,25.78,20.9,46.68,46.68,46.68h155.11c25.78,0,46.68-20.9,46.68-46.68h0c0-25.78-20.9-46.68-46.68-46.68h0s0,0,0,0h0Z"/>
        <path class="cls-1" d="M124.24,108.19c16.5,0,29.92,13.42,29.92,29.92s-13.42,29.92-29.92,29.92-29.92-13.42-29.92-29.92,13.42-29.92,29.92-29.92h0ZM124.24,91.42c-25.78,0-46.68,20.9-46.68,46.68s20.9,46.68,46.68,46.68,46.68-20.9,46.68-46.68-20.9-46.68-46.68-46.68h0Z"/>
        <g>
          <path class="cls-1" d="M302.26,15.69h11.14c.88,0,1.32.44,1.32,1.32v16.89c0,.74-.39,1.36-1.16,1.85-2.96,1.76-6.97,2.64-12.04,2.64-12.04,0-18.05-6.41-18.05-19.22S289.65.02,302,.02c4.3,0,7.85.84,10.66,2.54.81.43,1.07.97.79,1.63l-1.32,3.28c-.32.81-.91,1.02-1.79.63-2.43-1.02-4.89-1.53-7.39-1.53-4.23,0-7.28.99-9.16,2.98-1.88,1.99-2.82,5.2-2.82,9.63s.92,7.7,2.77,9.68c1.85,1.99,4.72,2.98,8.63,2.98,2.22,0,4.1-.35,5.65-1.06v-9.35h-5.75c-.88,0-1.32-.41-1.32-1.22v-3.22c0-.88.44-1.32,1.32-1.32h-.02s0,.01,0,.01Z"/>
          <path class="cls-1" d="M323.32.64h11.82c5.21,0,9.08.99,11.61,2.98,2.53,1.99,3.8,5.17,3.8,9.52,0,6.21-3.03,9.96-9.1,11.26l8.97,11.77c.32.39.4.75.24,1.1-.16.35-.5.52-1.03.52h-4.99c-.7,0-1.32-.36-1.84-1.07l-8.57-11.34h-4.91s0,11.09,0,11.09c0,.88-.45,1.32-1.32,1.32h-4.7c-.88,0-1.32-.44-1.32-1.32V1.91c0-.84.44-1.27,1.32-1.27h.02,0ZM329.34,19.28h5.65c2.96,0,5.06-.5,6.31-1.48,1.25-.98,1.87-2.53,1.87-4.64,0-2.22-.62-3.8-1.87-4.75-1.25-.95-3.34-1.43-6.26-1.43h-5.7s0,12.3,0,12.3h0Z"/>
          <path class="cls-1" d="M382.38,34.85c-2.45,2.4-6.1,3.59-10.95,3.59s-8.52-1.2-10.98-3.59-3.69-5.89-3.69-10.51V1.91c0-.84.44-1.27,1.32-1.27h4.75c.88,0,1.32.43,1.32,1.27v21.8c0,2.67.58,4.69,1.74,6.04,1.16,1.36,3.01,2.03,5.54,2.03,4.86,0,7.29-2.69,7.29-8.08V1.91c0-.84.43-1.27,1.27-1.27h4.8c.84,0,1.27.43,1.27,1.27v22.44c0,4.61-1.23,8.11-3.67,10.51h0Z"/>
          <path class="cls-1" d="M399.66,37.81h-4.7c-.88,0-1.32-.44-1.32-1.32V1.91c0-.84.43-1.27,1.27-1.27h11.46c5.32,0,9.26,1.04,11.82,3.12,2.56,2.08,3.85,5.44,3.85,10.08s-1.29,8.05-3.85,10.11c-2.56,2.06-6.51,3.09-11.82,3.09h-5.39v9.45c0,.88-.45,1.32-1.32,1.32h0s0,0,0,0ZM400.98,20.7h5.33c2.92,0,5.03-.52,6.34-1.58,1.3-1.06,1.95-2.81,1.95-5.28s-.65-4.23-1.95-5.28c-1.31-1.06-3.42-1.58-6.34-1.58h-5.33v13.72Z"/>
          <path class="cls-1" d="M431.42,4.86c2.87-3.24,6.92-4.86,12.17-4.86s9.3,1.62,12.17,4.86c2.87,3.24,4.31,8.02,4.31,14.36s-1.44,11.11-4.31,14.34c-2.87,3.22-6.94,4.83-12.22,4.83s-9.29-1.61-12.14-4.86c-2.85-3.24-4.28-8.01-4.28-14.31s1.44-11.12,4.31-14.36h0ZM443.59,31.95c5.95,0,8.92-4.24,8.92-12.72s-2.97-12.77-8.92-12.77-8.97,4.26-8.97,12.77,2.99,12.72,8.97,12.72Z"/>
        </g>
        <g>
          <path class="cls-2" d="M370.96,195.21c-2.57,0-4.62-1.19-6.16-3.59l-40.32-66.77v102.45c0,4.97-2.48,7.44-7.44,7.44h-27.73c-4.97,0-7.44-2.48-7.44-7.44V60.92c0-4.96,2.48-7.44,7.44-7.44h26.96c3.93,0,6.84,1.46,8.73,4.36l45.96,76.78,45.96-76.78c1.54-2.91,4.36-4.36,8.47-4.36h26.96c5.13,0,7.7,2.48,7.7,7.44v166.4c0,4.97-2.57,7.44-7.7,7.44h-27.73c-4.79,0-7.19-2.48-7.19-7.44v-102.45l-40.57,66.77c-1.54,2.4-3.51,3.59-5.9,3.59h0s0,0,0,0Z"/>
          <path class="cls-2" d="M582.55,195.21c-2.57,0-4.62-1.19-6.16-3.59l-40.32-66.77v102.45c0,4.97-2.48,7.44-7.44,7.44h-27.73c-4.97,0-7.44-2.48-7.44-7.44V60.92c0-4.96,2.48-7.44,7.44-7.44h26.96c3.93,0,6.84,1.46,8.73,4.36l45.96,76.78,45.96-76.78c1.54-2.91,4.36-4.36,8.47-4.36h26.96c5.13,0,7.7,2.48,7.7,7.44v166.4c0,4.97-2.57,7.44-7.7,7.44h-27.73c-4.79,0-7.19-2.48-7.19-7.44v-102.45l-40.57,66.77c-1.54,2.4-3.51,3.59-5.9,3.59h0s0,0,0,0Z"/>
          <path class="cls-2" d="M780.27,234.76h-67.79c-4.97,0-7.44-2.48-7.44-7.44V60.92c0-4.96,2.48-7.44,7.44-7.44h65.48c23.97,0,41.6,3.77,52.9,11.3,11.3,7.53,16.95,19.77,16.95,36.72,0,9.76-2.27,17.81-6.81,24.14-4.54,6.33-10.23,10.61-17.07,12.84,19.52,5.82,29.27,20.2,29.27,43.14,0,35.44-24.31,53.15-72.93,53.15h0s0,0,0,0ZM748.42,126.39h28.76c10.1,0,17.29-1.58,21.57-4.75,4.27-3.16,6.42-8.26,6.42-15.28s-2.1-11.77-6.29-14.76c-4.2-2.99-11.52-4.5-21.95-4.5h-28.5v39.29h0ZM748.42,201.12h29.53c11.81,0,20.03-1.62,24.65-4.88,4.62-3.25,6.93-8.9,6.93-16.95s-2.36-13.22-7.06-16.56c-4.71-3.34-12.8-5.01-24.27-5.01h-29.78s0,43.4,0,43.4h0Z"/>
        </g>
        <g>
          <g>
            <path class="cls-2" d="M336.87,258.84c-.16,0-.28-.08-.37-.23l-3.72-6.04v9.4c0,.25-.13.38-.38.38h-1.27c-.27,0-.4-.13-.4-.38v-12.56c0-.25.13-.38.4-.38h1.27c.2,0,.35.08.45.23l4.02,6.52,4.02-6.52c.1-.15.25-.23.45-.23h1.29c.25,0,.38.13.38.38v12.56c0,.25-.13.38-.38.38h-1.29c-.25,0-.38-.13-.38-.38v-9.4l-3.72,6.04c-.09.16-.21.23-.37.23h-.01,0Z"/>
            <path class="cls-2" d="M353.23,248.82c1.87,0,3.3.59,4.31,1.76,1,1.17,1.5,2.87,1.5,5.1s-.5,3.94-1.5,5.1c-1,1.17-2.44,1.75-4.31,1.75s-3.29-.58-4.29-1.75c-1-1.17-1.51-2.87-1.51-5.1s.51-3.92,1.51-5.1c1-1.17,2.43-1.76,4.29-1.76ZM353.23,260.7c2.46,0,3.69-1.67,3.69-5.02s-1.23-5.02-3.69-5.02-3.67,1.67-3.67,5.02,1.22,5.02,3.67,5.02Z"/>
            <path class="cls-2" d="M368.73,262.35h-4.85c-.27,0-.4-.13-.4-.38v-12.56c0-.25.13-.38.4-.38h4.74c1.71,0,2.95.28,3.76.84.8.56,1.21,1.44,1.21,2.63,0,.81-.18,1.45-.53,1.9-.35.46-.8.76-1.34.92,1.55.35,2.33,1.43,2.33,3.22,0,1.34-.44,2.31-1.29,2.91-.87.6-2.2.9-4.01.9h0ZM365.55,254.64h3.11c1.06,0,1.81-.15,2.24-.45.44-.3.66-.81.66-1.52s-.23-1.16-.68-1.45c-.45-.28-1.21-.42-2.3-.42h-3.03s0,3.84,0,3.84h0ZM365.55,260.57h3.05c1.25,0,2.13-.15,2.63-.46s.75-.87.75-1.68c0-.76-.24-1.29-.71-1.62-.47-.32-1.31-.48-2.53-.48h-3.18v4.24h0Z"/>
            <path class="cls-2" d="M378.62,261.97v-12.56c0-.25.12-.38.36-.38h1.33c.27,0,.4.13.4.38v12.56c0,.25-.13.38-.4.38h-1.33c-.24,0-.36-.13-.36-.38Z"/>
            <path class="cls-2" d="M387.9,249.41v11.04h5.46c.27,0,.4.11.4.34v1.17c0,.25-.13.38-.4.38h-7.14c-.27,0-.4-.13-.4-.38v-12.56c0-.25.13-.38.4-.38h1.31c.25,0,.38.13.38.38h0Z"/>
            <path class="cls-2" d="M398.11,261.97v-12.56c0-.25.12-.38.36-.38h1.33c.27,0,.4.13.4.38v12.56c0,.25-.13.38-.4.38h-1.33c-.24,0-.36-.13-.36-.38Z"/>
            <path class="cls-2" d="M409.15,262.35h-3.45c-.27,0-.4-.13-.4-.38v-12.56c0-.25.13-.38.38-.38h3.43c2.21,0,3.86.5,4.98,1.5,1.1,1,1.65,2.66,1.65,4.98,0,2.48-.55,4.24-1.64,5.28-1.09,1.04-2.74,1.56-4.95,1.56h0s0,0,0,0ZM409.08,250.92h-1.69v9.53h1.71c1.54,0,2.68-.35,3.42-1.06.74-.71,1.1-2,1.1-3.88,0-1.72-.37-2.91-1.12-3.58-.74-.67-1.89-1-3.43-1h0Z"/>
            <path class="cls-2" d="M423.75,249.03h1.67c.15,0,.25.03.32.08.06.06.11.16.16.29l4.6,12.52c.05.11.05.21-.01.29-.06.08-.15.13-.27.13h-1.42c-.2,0-.35-.11-.45-.34l-1.04-2.86h-5.4l-.98,2.86c-.08.23-.23.34-.44.34h-1.51c-.13,0-.23-.04-.28-.13-.06-.09-.07-.2-.03-.32l4.6-12.52c.05-.13.11-.21.17-.27.06-.05.17-.08.32-.08h0s0,0,0,0ZM422.51,257.33h4.34l-2.14-6.23h-.04s-2.16,6.23-2.16,6.23h0s0,0,0,0Z"/>
            <path class="cls-2" d="M438.38,262.35h-3.45c-.27,0-.4-.13-.4-.38v-12.56c0-.25.13-.38.38-.38h3.43c2.21,0,3.86.5,4.98,1.5,1.1,1,1.65,2.66,1.65,4.98,0,2.48-.55,4.24-1.64,5.28-1.09,1.04-2.74,1.56-4.95,1.56h0s0,0,0,0ZM438.31,250.92h-1.69v9.53h1.71c1.54,0,2.68-.35,3.42-1.06.74-.71,1.11-2,1.11-3.88,0-1.72-.37-2.91-1.12-3.58s-1.89-1-3.43-1h0Z"/>
            <path class="cls-2" d="M456.85,256.44h-5.38v4.07h5.66c.25,0,.38.12.38.36v1.08c0,.27-.13.4-.38.4h-7.33c-.27,0-.4-.13-.4-.38v-12.56c0-.25.13-.38.38-.38h7.27c.27,0,.4.13.4.38v1.08c0,.25-.13.38-.4.38h-5.59s0,3.79,0,3.79h5.38c.24,0,.36.13.36.4v.99c0,.27-.12.4-.36.4h0Z"/>
          </g>
          <path class="cls-2" d="M471.8,259.85c-.75,0-1.36-.25-1.86-.76-.49-.51-.74-1.14-.74-1.89s.25-1.38.75-1.88c.5-.5,1.12-.75,1.87-.75s1.37.25,1.87.75c.5.5.75,1.12.75,1.88s-.25,1.39-.75,1.89c-.5.51-1.13.76-1.89.76h0Z"/>
          <g>
            <path class="cls-2" d="M492.26,258.84c-.16,0-.28-.08-.37-.23l-3.72-6.04v9.4c0,.25-.13.38-.38.38h-1.27c-.27,0-.4-.13-.4-.38v-12.56c0-.25.13-.38.4-.38h1.27c.2,0,.35.08.45.23l4.02,6.52,4.02-6.52c.1-.15.25-.23.45-.23h1.29c.25,0,.38.13.38.38v12.56c0,.25-.13.38-.38.38h-1.29c-.25,0-.38-.13-.38-.38v-9.4l-3.72,6.04c-.09.16-.21.23-.37.23h-.01,0Z"/>
            <path class="cls-2" d="M512.26,261.29c-.85.86-2.13,1.29-3.84,1.29s-2.99-.43-3.84-1.29c-.85-.86-1.28-2.09-1.28-3.69v-8.18c0-.25.13-.38.38-.38h1.31c.27,0,.4.13.4.38v8.01c0,2.17,1.01,3.26,3.03,3.26s3.05-1.09,3.05-3.26v-8.01c0-.25.13-.38.38-.38h1.33c.24,0,.36.13.36.38v8.18c0,1.6-.42,2.83-1.28,3.69h0,0Z"/>
            <path class="cls-2" d="M520.54,249.41v11.04h5.46c.27,0,.4.11.4.34v1.17c0,.25-.13.38-.4.38h-7.14c-.27,0-.4-.13-.4-.38v-12.56c0-.25.13-.38.4-.38h1.31c.25,0,.38.13.38.38h0Z"/>
            <path class="cls-2" d="M528.16,250.54v-1.14c0-.25.13-.38.38-.38h8.68c.27,0,.4.13.4.38v1.14c0,.25-.13.38-.4.38h-3.28s0,11.04,0,11.04c0,.25-.13.38-.4.38h-1.31c-.25,0-.38-.13-.38-.38v-11.04h-3.3c-.27,0-.4-.13-.4-.38h0Z"/>
            <path class="cls-2" d="M541.74,261.97v-12.56c0-.25.12-.38.36-.38h1.33c.27,0,.4.13.4.38v12.56c0,.25-.13.38-.4.38h-1.33c-.24,0-.36-.13-.36-.38Z"/>
            <path class="cls-2" d="M550.62,262.35h-1.29c-.27,0-.4-.13-.4-.38v-12.56c0-.25.13-.38.38-.38h3.86c1.92,0,3.33.37,4.24,1.1s1.36,1.93,1.36,3.58-.45,2.84-1.36,3.57c-.9.73-2.32,1.09-4.24,1.09h-2.16v3.6c0,.25-.13.38-.4.38h0ZM551.02,256.53h2.16c1.22,0,2.11-.21,2.65-.64.54-.43.81-1.16.81-2.18s-.27-1.77-.81-2.2c-.54-.43-1.43-.64-2.65-.64h-2.16v5.66h0Z"/>
            <path class="cls-2" d="M563.67,249.03h4.03c1.84,0,3.21.35,4.1,1.06.89.71,1.34,1.81,1.34,3.31,0,2.34-1.2,3.69-3.6,4.07l3.58,4.39c.09.1.11.2.07.31-.04.11-.14.16-.29.16h-1.42c-.21,0-.4-.1-.56-.31l-3.49-4.31h-2.06s0,4.24,0,4.24c0,.25-.13.38-.4.38h-1.29c-.27,0-.4-.13-.4-.38v-12.56c0-.25.13-.38.4-.38h0ZM565.36,255.91h2.27c1.24,0,2.12-.2,2.64-.59.52-.4.79-1.04.79-1.91s-.27-1.56-.8-1.95c-.53-.39-1.4-.59-2.6-.59h-2.31v5.04h0Z"/>
            <path class="cls-2" d="M582.71,248.82c1.87,0,3.3.59,4.31,1.76,1,1.17,1.5,2.87,1.5,5.1s-.5,3.94-1.5,5.1c-1,1.17-2.44,1.75-4.31,1.75s-3.29-.58-4.29-1.75c-1-1.17-1.51-2.87-1.51-5.1s.51-3.92,1.51-5.1c1-1.17,2.43-1.76,4.29-1.76ZM582.71,260.7c2.46,0,3.69-1.67,3.69-5.02s-1.23-5.02-3.69-5.02-3.67,1.67-3.67,5.02,1.23,5.02,3.67,5.02Z"/>
            <path class="cls-2" d="M591.41,250.54v-1.14c0-.25.13-.38.38-.38h8.68c.27,0,.4.13.4.38v1.14c0,.25-.13.38-.4.38h-3.28s0,11.04,0,11.04c0,.25-.13.38-.4.38h-1.31c-.25,0-.38-.13-.38-.38v-11.04h-3.3c-.27,0-.4-.13-.4-.38h0Z"/>
            <path class="cls-2" d="M612.3,256.44h-5.38v4.07h5.66c.25,0,.38.12.38.36v1.08c0,.27-.13.4-.38.4h-7.33c-.27,0-.4-.13-.4-.38v-12.56c0-.25.13-.38.38-.38h7.27c.27,0,.4.13.4.38v1.08c0,.25-.13.38-.4.38h-5.59s0,3.79,0,3.79h5.38c.24,0,.36.13.36.4v.99c0,.27-.12.4-.36.4h0Z"/>
            <path class="cls-2" d="M623.08,260.68c.91,0,1.74-.21,2.5-.62.23-.09.4-.01.51.23l.44.99c.08.16-.01.31-.27.44-.91.56-2.07.83-3.49.83h-.04c.73.42,1.1.93,1.1,1.55,0,.48-.18.85-.53,1.1-.35.25-.86.38-1.52.38-.39,0-.66-.03-.8-.09-.15-.06-.23-.15-.23-.27v-.59c0-.14.08-.21.25-.21h.55c.64,0,.97-.21.97-.63,0-.52-.39-.98-1.17-1.38-1.49-.25-2.63-.95-3.43-2.1-.8-1.15-1.21-2.69-1.21-4.62,0-2.21.52-3.91,1.56-5.09,1.04-1.18,2.51-1.77,4.41-1.77,1.39,0,2.54.27,3.45.8.23.13.31.28.25.45l-.42.97c-.09.24-.26.3-.51.19-.73-.35-1.55-.53-2.44-.53-2.78,0-4.17,1.66-4.17,4.98s1.41,5,4.24,5h0s0,0,0,0Z"/>
            <path class="cls-2" d="M634.64,249.03h1.71c.16,0,.27.03.32.08.06.06.11.16.16.29l4.64,12.52c.05.11.05.21,0,.29-.06.08-.15.13-.28.13h-1.42c-.2,0-.35-.11-.45-.34l-1.04-2.86h-5.51l-.98,2.86c-.08.23-.23.34-.44.34h-1.51c-.13,0-.23-.04-.28-.13-.06-.09-.07-.2-.03-.32l4.6-12.52c.05-.13.11-.21.18-.27.06-.05.18-.08.33-.08h0s0,0,0,0ZM638.78,246.68c0,.43-.12.78-.35,1.05-.23.27-.59.4-1.07.4s-1.02-.12-1.67-.35l-.56-.18c-1-.32-1.53-.3-1.56.04l-.02.16c-.03.18-.15.27-.38.27h-.51c-.21,0-.32-.15-.32-.45,0-.43.11-.78.35-1.05.23-.27.59-.41,1.07-.41s1.02.15,1.63.45l.61.23c.47.11.83.17,1.09.17s.4-.13.45-.38l.02-.19c.04-.18.17-.27.4-.27h.49c.23,0,.34.16.34.49h0ZM633.38,257.33h4.34l-2.14-6.23h-.04s-2.16,6.23-2.16,6.23h0s0,0,0,0Z"/>
            <path class="cls-2" d="M650.3,248.82c1.87,0,3.3.59,4.31,1.76,1,1.17,1.5,2.87,1.5,5.1s-.5,3.94-1.5,5.1c-1,1.17-2.44,1.75-4.31,1.75s-3.29-.58-4.29-1.75c-1-1.17-1.51-2.87-1.51-5.1s.51-3.92,1.51-5.1c1-1.17,2.43-1.76,4.29-1.76ZM650.3,260.7c2.46,0,3.69-1.67,3.69-5.02s-1.23-5.02-3.69-5.02-3.67,1.67-3.67,5.02,1.23,5.02,3.67,5.02Z"/>
          </g>
          <path class="cls-2" d="M670.4,259.85c-.74,0-1.36-.25-1.86-.76-.49-.51-.74-1.14-.74-1.89s.25-1.38.74-1.88c.5-.5,1.12-.75,1.87-.75s1.37.25,1.87.75c.5.5.75,1.12.75,1.88s-.25,1.39-.75,1.89c-.5.51-1.13.76-1.89.76h0Z"/>
          <g>
            <path class="cls-2" d="M689.97,262.35h-4.85c-.27,0-.4-.13-.4-.38v-12.56c0-.25.13-.38.4-.38h4.74c1.71,0,2.95.28,3.76.84.8.56,1.21,1.44,1.21,2.63,0,.81-.18,1.45-.53,1.9-.35.46-.8.76-1.34.92,1.55.35,2.33,1.43,2.33,3.22,0,1.34-.44,2.31-1.29,2.91-.87.6-2.2.9-4.01.9h0ZM686.79,254.64h3.11c1.06,0,1.81-.15,2.24-.45.44-.3.66-.81.66-1.52s-.23-1.16-.68-1.45c-.45-.28-1.21-.42-2.3-.42h-3.03s0,3.84,0,3.84h0ZM686.79,260.57h3.05c1.25,0,2.13-.15,2.63-.46s.75-.87.75-1.68c0-.76-.24-1.29-.71-1.62-.47-.32-1.31-.48-2.53-.48h-3.18v4.24h0Z"/>
            <path class="cls-2" d="M707.17,256.44h-5.38v4.07h5.66c.25,0,.38.12.38.36v1.08c0,.27-.13.4-.38.4h-7.33c-.27,0-.4-.13-.4-.38v-12.56c0-.25.13-.38.38-.38h7.27c.27,0,.4.13.4.38v1.08c0,.25-.13.38-.4.38h-5.59s0,3.79,0,3.79h5.38c.24,0,.36.13.36.4v.99c0,.27-.12.4-.36.4h0Z"/>
            <path class="cls-2" d="M722.53,249.39v12.58c0,.25-.13.38-.38.38h-1.33c-.21,0-.39-.09-.51-.28l-6.07-9.57v9.47c0,.25-.12.38-.36.38h-1.27c-.27,0-.4-.13-.4-.38v-12.56c0-.25.13-.38.4-.38h1.31c.24,0,.42.09.53.26l6.06,9.58v-9.46c0-.25.13-.38.38-.38h1.27c.25,0,.38.12.38.36Z"/>
            <path class="cls-2" d="M735,256.44h-5.38v4.07h5.66c.25,0,.38.12.38.36v1.08c0,.27-.13.4-.38.4h-7.33c-.27,0-.4-.13-.4-.38v-12.56c0-.25.13-.38.38-.38h7.27c.27,0,.4.13.4.38v1.08c0,.25-.13.38-.4.38h-5.59s0,3.79,0,3.79h5.38c.24,0,.36.13.36.4v.99c0,.27-.12.4-.36.4h0Z"/>
            <path class="cls-2" d="M747.54,256.64h-5.42v5.32c0,.25-.13.38-.4.38h-1.29c-.27,0-.4-.13-.4-.38v-12.56c0-.25.13-.38.4-.38h7.26c.24,0,.36.12.36.36v1.08c0,.25-.12.38-.36.38h-5.57v4.02h5.42c.25,0,.38.13.38.4v1.02c0,.24-.13.36-.38.36h0Z"/>
            <path class="cls-2" d="M752.41,261.97v-12.56c0-.25.12-.38.36-.38h1.33c.27,0,.4.13.4.38v12.56c0,.25-.13.38-.4.38h-1.33c-.24,0-.36-.13-.36-.38ZM752.78,247.72l.97-1.65c.11-.19.27-.28.47-.28h1.61c.13,0,.2.05.23.15.03.1,0,.19-.09.27l-1.72,1.61c-.11.15-.28.23-.51.23h-.72c-.11,0-.19-.03-.23-.11-.04-.07-.04-.14,0-.21Z"/>
            <path class="cls-2" d="M765.44,260.68c.91,0,1.74-.21,2.5-.62.23-.09.4-.01.51.23l.44.99c.08.16-.01.31-.27.44-.91.56-2.07.83-3.49.83-1.93,0-3.42-.59-4.48-1.76-1.05-1.17-1.58-2.87-1.58-5.1s.52-3.91,1.56-5.09c1.04-1.18,2.51-1.77,4.41-1.77,1.39,0,2.54.27,3.45.8.23.13.31.28.25.45l-.42.97c-.09.24-.26.3-.51.19-.73-.35-1.55-.53-2.44-.53-2.78,0-4.17,1.66-4.17,4.98s1.41,5,4.24,5h0s0,0,0,0Z"/>
            <path class="cls-2" d="M773.21,261.97v-12.56c0-.25.12-.38.36-.38h1.33c.27,0,.4.13.4.38v12.56c0,.25-.13.38-.4.38h-1.33c-.24,0-.36-.13-.36-.38Z"/>
            <path class="cls-2" d="M785.63,248.82c1.87,0,3.3.59,4.31,1.76,1,1.17,1.5,2.87,1.5,5.1s-.5,3.94-1.5,5.1c-1,1.17-2.44,1.75-4.31,1.75s-3.29-.58-4.29-1.75c-1-1.17-1.51-2.87-1.51-5.1s.51-3.92,1.51-5.1c1-1.17,2.43-1.76,4.29-1.76ZM785.63,260.7c2.46,0,3.69-1.67,3.69-5.02s-1.23-5.02-3.69-5.02-3.67,1.67-3.67,5.02,1.22,5.02,3.67,5.02Z"/>
            <path class="cls-2" d="M804.33,258.86c0,1.2-.45,2.11-1.34,2.73-.9.62-2.11.93-3.66.93-1.67,0-2.97-.23-3.9-.68-.24-.11-.33-.26-.27-.44l.38-1.02c.09-.25.24-.33.45-.23.91.37,1.96.55,3.14.55.96,0,1.72-.16,2.27-.48.56-.32.83-.78.83-1.39,0-.32-.07-.59-.21-.83-.14-.24-.38-.46-.71-.67-.33-.21-.62-.37-.88-.47-.25-.11-.64-.27-1.18-.49-.5-.21-.9-.37-1.18-.49-.28-.11-.62-.3-1.02-.54-.39-.24-.69-.49-.89-.74-.2-.25-.38-.57-.53-.96-.15-.39-.23-.81-.23-1.29,0-1.14.39-2.01,1.16-2.61.78-.61,1.94-.91,3.52-.91,1.36,0,2.51.2,3.43.61.23.1.31.25.25.45l-.36.99c-.09.23-.25.3-.49.21-.81-.29-1.69-.44-2.65-.44s-1.66.15-2.1.44c-.44.29-.66.73-.66,1.34,0,.39.11.72.35,1,.23.28.5.49.8.62.3.13.73.32,1.27.56.06.03.1.04.13.06.03.01.06.03.11.04.04.02.08.03.11.05,1.33.55,2.24,1,2.7,1.37.9.69,1.35,1.6,1.35,2.75h0s0-.01,0-.01Z"/>
          </g>
        </g>
      </g>
    </g>
  </g>
</svg>