<?xml version="1.0" encoding="utf-8"?>
<!-- Generator: Adobe Illustrator 25.4.1, SVG Export Plug-In . SVG Version: 6.00 Build 0)  -->
<svg version="1.1" id="Camada_1" xmlns="http://www.w3.org/2000/svg" xmlns:xlink="http://www.w3.org/1999/xlink" x="0px" y="0px"
	 viewBox="0 0 414.9 225.2" style="enable-background:new 0 0 414.9 225.2;" xml:space="preserve">
<style type="text/css">
	.st0{fill-rule:evenodd;clip-rule:evenodd;fill:#004885;}
	.st1{fill-rule:evenodd;clip-rule:evenodd;fill:#FFB500;}
	.st2{fill-rule:evenodd;clip-rule:evenodd;fill:#00814B;}
	.st3{fill:#004885;}
	.st4{fill:#00814B;}
</style>
<g id="Camada_2_00000051350785841057878640000017844664820037219257_">
	<g id="Camada_1-2">
		<path class="st0" d="M139.8,52.7c9.1,0,16.5,7.4,16.5,16.5s-7.4,16.4-16.5,16.4s-16.4-7.4-16.4-16.4l0,0
			C123.3,60.1,130.7,52.7,139.8,52.7"/>
		<path class="st0" d="M159.7,82.6h-4.2c-7.3,8.5-20.1,9.4-28.6,2.1c-0.7-0.6-1.4-1.3-2.1-2.1h-24.7c-4.4,0-5.3,4.5-3.3,8.3l20.3,38
			c-12,4.7-23.4,11-33.8,18.6c12.7-5.8,25.9-10.4,39.3-14v-0.1c14-3.7,28.3-6.4,42.7-8.2l8.5-16.2L159.7,82.6z"/>
		<path class="st1" d="M257.1,38.3h-29.6c-9.4,10.8-25.8,12-36.7,2.6c-0.9-0.8-1.8-1.7-2.6-2.6h-31.6c-5.6,0-6.8,5.8-4.2,10.7
			l39.5,74c10.8-0.5,21.6-0.4,32.3,0.1l38-72.6C265.4,44.4,264,38.3,257.1,38.3"/>
		<path class="st1" d="M207.8,0c11.6,0,21.1,9.4,21.1,21.1s-9.4,21.1-21.1,21.1c-11.6,0-21.1-9.4-21.1-21.1c0,0,0,0,0,0
			C186.7,9.4,196.2,0,207.8,0"/>
		<path class="st2" d="M274.7,52.7c-9.1,0-16.4,7.4-16.4,16.5s7.4,16.4,16.5,16.4s16.4-7.4,16.4-16.4
			C291.1,60.1,283.7,52.7,274.7,52.7"/>
		<path class="st2" d="M255.2,82.6h4.2c7.3,8.5,20.1,9.4,28.6,2.1c0.7-0.6,1.4-1.3,2.1-2.1h24.7c4.4,0,5.3,4.5,3.2,8.3l-20.2,37.9
			c12.1,4.7,23.5,11,34,18.6c-12.7-5.8-25.9-10.4-39.4-14l0,0c-14.1-3.7-28.4-6.5-42.8-8.2l-8.5-16.2L255.2,82.6z"/>
		<path class="st2" d="M344.8,161.6c-89.8-25.4-184.9-25.4-274.6,0C145.5,118.1,269.5,118.5,344.8,161.6"/>
		<path class="st0" d="M73.8,218.2l-3.8,6.2h-9.2l3.9-6.2L73.8,218.2z M50.3,224.4v-24.1l-17.9,23.3c-0.9,1.1-2.2,1.7-3.6,1.6
			c-1.4,0.1-2.7-0.5-3.6-1.6L7.4,200.3v24.1H0v-34.1c-0.1-1,0.4-2,1.3-2.5c0.9-0.6,2-0.8,3.1-0.8c0.8,0,1.6,0.1,2.3,0.4
			c0.6,0.3,1.2,0.8,1.6,1.3l20.7,27.4l20.8-27.4c0.4-0.5,0.9-1,1.5-1.3c0.7-0.3,1.4-0.4,2.2-0.4c1.1,0,2.2,0.2,3.1,0.8
			c0.8,0.5,1.3,1.5,1.3,2.5v34.1H50.3z M119.2,187.8h8.2v36.6h-8.2V187.8z M90.4,209.6c1,1.7,1.7,2.8,4.1,6.6H59.9v-6.6h10.2
			l11.9-19c0.6-1,1.4-1.9,2.3-2.6c1.1-0.7,2.5-1.1,3.9-1c1.3-0.1,2.7,0.3,3.8,1c0.9,0.7,1.7,1.6,2.3,2.6l21.2,33.8h-9.4
			c-12.6-20-5-7.9-18-29.1l-8.8,14.3L90.4,209.6z M132.7,224.4v-6.9h27.8c1.1,0.1,2.2-0.1,3.2-0.6c0.7-0.6,1.1-1.5,1-2.5v-2
			c0.1-0.9-0.3-1.8-1-2.4c-0.9-0.6-2-0.8-3.1-0.7h-17.4c-1.7,0-3.4-0.1-5.1-0.6c-1.2-0.3-2.3-0.9-3.2-1.7c-0.8-0.8-1.4-1.8-1.6-2.9
			c-0.3-1.3-0.5-2.7-0.5-4.1v-1.8c0-1.6,0.2-3.2,0.6-4.8c0.3-1.2,1-2.3,1.8-3.2c0.9-0.9,2-1.5,3.2-1.8c1.5-0.4,3.1-0.6,4.7-0.6h27.8
			l-4.3,6.9h-22.8c-1-0.1-1.9,0.2-2.8,0.7c-0.6,0.5-0.9,1.4-0.9,2.9v1.2c-0.1,0.9,0.2,1.8,0.8,2.5c0.8,0.6,1.8,0.8,2.8,0.7h17.1
			c1.7,0,3.5,0.1,5.2,0.5c1.3,0.3,2.4,0.8,3.5,1.6c0.9,0.8,1.6,1.8,1.9,2.9c0.4,1.4,0.6,2.8,0.6,4.2v2.9c0,1.5-0.2,3-0.6,4.4
			c-0.4,1.1-1,2.1-1.9,2.9c-1,0.8-2.2,1.4-3.5,1.7c-1.7,0.4-3.4,0.6-5.2,0.5L132.7,224.4z"/>
		<path class="st2" d="M364.5,187.6h8.2v36.9h-8.2V187.6z M324,224.5l-4.4-7h27.9c1.1,0.1,2.2-0.1,3.2-0.6c0.7-0.6,1.1-1.6,1-2.5v-2
			c0.1-0.9-0.3-1.9-1-2.5c-0.9-0.6-2-0.8-3.1-0.7H330c-1.7,0-3.4-0.2-5.1-0.6c-1.2-0.3-2.3-0.9-3.2-1.7c-0.8-0.8-1.4-1.8-1.6-2.9
			c-0.3-1.4-0.5-2.8-0.5-4.1V198c0-1.6,0.2-3.2,0.6-4.8c0.6-2.5,2.6-4.4,5.1-5c1.5-0.4,3.1-0.6,4.7-0.6h28.8l-2.9,7h-25.1
			c-1-0.1-2,0.2-2.8,0.7c-0.6,0.5-0.9,1.5-0.9,2.9v1.2c-0.1,0.9,0.2,1.8,0.8,2.5c0.8,0.6,1.8,0.8,2.8,0.7h17.2
			c1.7,0,3.5,0.1,5.2,0.5c1.3,0.3,2.5,0.8,3.5,1.6c0.9,0.8,1.6,1.8,1.9,2.9c0.4,1.4,0.6,2.8,0.6,4.3v3c0,1.5-0.2,3-0.6,4.4
			c-0.4,1.1-1,2.2-1.9,2.9c-1,0.8-2.2,1.4-3.5,1.7c-1.7,0.4-3.5,0.6-5.2,0.5L324,224.5z M176.8,187.6h31c1.8,0,3.6,0.1,5.3,0.4
			c1.3,0.2,2.5,0.7,3.6,1.4c0.9,0.7,1.6,1.6,2,2.6c0.5,1.3,0.7,2.6,0.6,3.9v3c0,2.2-0.4,3.7-1.1,4.7c-0.7,0.9-1.7,1.6-2.9,1.9
			c0.6,0.1,1.2,0.4,1.8,0.7c0.6,0.3,1.1,0.8,1.4,1.3c0.4,0.7,0.7,1.5,0.9,2.2c0.2,1.1,0.3,2.3,0.3,3.4v3.2c0,1.3-0.2,2.5-0.6,3.7
			c-0.4,1-1.1,1.9-2,2.5c-1.1,0.7-2.3,1.2-3.6,1.4c-1.8,0.3-3.5,0.5-5.3,0.4h-31.5V187.6z M185,208.8v9h22.9
			c1.1,0.1,2.3-0.1,3.3-0.6c0.7-0.6,1.1-1.4,1-2.4v-2.3c0-1.5-0.3-2.5-0.9-3c-0.9-0.6-2-0.9-3.1-0.8L185,208.8z M185,194.3v8.5h23
			c1.1,0.1,2.1-0.1,3-0.7c0.6-0.7,0.9-1.6,0.8-2.5v-2.3c0.1-0.9-0.3-1.8-1-2.3c-1.1-0.5-2.4-0.7-3.6-0.6L185,194.3z M259.5,199.2
			c0-0.8-0.1-1.6-0.3-2.4c-0.2-0.6-0.6-1.1-1.1-1.4c-0.6-0.4-1.4-0.6-2.1-0.6c-1.1-0.1-2.2-0.2-3.3-0.2h-20.1v11.3h20.1
			c1.1,0,2.2,0,3.3-0.2c0.7-0.1,1.5-0.3,2.1-0.6c0.5-0.3,0.9-0.8,1.1-1.4c0.2-0.8,0.3-1.6,0.3-2.4L259.5,199.2z M291.3,209.7
			l-3.5,5.7h35.8l-1.9-5.7h-10.2l-11.9-19c-0.6-1-1.4-1.9-2.3-2.6c-1.1-0.7-2.5-1.1-3.9-1c-1.3-0.1-2.7,0.3-3.8,1
			c-0.9,0.7-1.7,1.6-2.3,2.6L267,223.4l-0.2-0.4l-7.1-11.5c1.6-0.2,3.2-0.8,4.5-1.7c1.2-0.8,2.1-2,2.7-3.3c0.6-1.7,0.9-3.5,0.9-5.3
			v-2.5c0.1-1.9-0.2-3.7-0.8-5.5c-0.5-1.4-1.4-2.6-2.6-3.4c-1.4-0.9-2.9-1.5-4.5-1.7c-2.2-0.4-4.4-0.5-6.6-0.5h-28.8v36.9h8.1V212
			h16.3l7.8,12.5h19c12.6-20,5-7.9,18-29.1l8.9,14.3L291.3,209.7z M307.9,218.4l3.8,6.2h9.2l-3.9-6.2H307.9z M392.3,224.5
			c-2.3,0-4.5-0.2-6.7-0.7c-1.6-0.4-3.1-1.1-4.3-2.2c-1.1-1.1-1.9-2.4-2.3-3.9c-0.5-1.9-0.7-3.9-0.7-5.9v-24.2h8.1v23.9
			c0,0.9,0.1,1.8,0.3,2.7c0.2,0.7,0.5,1.3,1,1.8c0.6,0.5,1.3,0.9,2,1.1c1.1,0.2,2.1,0.4,3.2,0.3h19l2.9,7L392.3,224.5z"/>
		<path class="st3" d="M83.2,174.5l-3.7-7.5v11.6c0,0.1-0.1,0.2-0.2,0.2c0,0,0,0-0.1,0h-0.7c-0.2,0-0.3-0.1-0.3-0.2V165
			c0-0.1,0.1-0.2,0.3-0.2h0.7c0.1,0,0.2,0.1,0.3,0.2l3.9,7.9l3.9-7.9c0-0.1,0.2-0.2,0.3-0.2h0.7c0.1,0,0.2,0.1,0.2,0.2c0,0,0,0,0,0
			v13.6c0,0.2-0.1,0.2-0.2,0.2h-0.7c-0.2,0-0.2-0.1-0.2-0.2V167l-3.7,7.5c-0.1,0.1-0.2,0.2-0.3,0.2
			C83.4,174.6,83.3,174.6,83.2,174.5"/>
		<path class="st3" d="M120.8,166.3c0.9,1.7,1.4,3.6,1.2,5.5c0,2.5-0.4,4.3-1.2,5.5c-1.6,2-4.6,2.3-6.7,0.7
			c-0.3-0.2-0.5-0.4-0.7-0.7c-0.8-1.2-1.2-3-1.2-5.5c-0.1-1.9,0.3-3.8,1.2-5.5c1.6-2,4.6-2.4,6.6-0.7
			C120.3,165.8,120.5,166.1,120.8,166.3 M119.9,176.5c0.7-1.5,1-3.1,0.9-4.7c0.1-1.6-0.2-3.2-0.9-4.7c-1-1.5-3.1-2-4.7-0.9
			c-0.4,0.2-0.7,0.5-0.9,0.9c-0.7,1.5-1,3.1-0.9,4.7c-0.1,1.6,0.2,3.2,0.9,4.7c1,1.5,3.1,2,4.7,0.9
			C119.3,177.2,119.6,176.9,119.9,176.5"/>
		<path class="st3" d="M148.5,178.9c-0.2,0-0.3-0.1-0.4-0.2l-4-13.6c0-0.2,0-0.3,0.2-0.3h0.7c0.1,0,0.3,0.1,0.3,0.2l2.6,9.1l0.9,3.4
			l0,0l0.9-3.4l2.6-9.1c0-0.1,0.1-0.2,0.3-0.2h0.8c0.2,0,0.2,0.1,0.2,0.3l-4,13.6c0,0.1-0.2,0.2-0.3,0.2H148.5z"/>
		<path class="st3" d="M177,165c0-0.1,0.1-0.2,0.2-0.2c0,0,0,0,0,0h0.7c0.2,0,0.3,0.1,0.3,0.2v13.6c0,0.2-0.1,0.2-0.3,0.2h-0.7
			c-0.1,0-0.2-0.1-0.2-0.2V165z"/>
		<path class="st3" d="M207.1,174.5l-3.7-7.5v11.6c0,0.1-0.1,0.2-0.2,0.2c0,0,0,0-0.1,0h-0.7c-0.2,0-0.3-0.1-0.3-0.2V165
			c0-0.1,0.1-0.2,0.3-0.2h0.7c0.1,0,0.2,0.1,0.3,0.2l3.9,7.9l3.9-7.9c0.1-0.1,0.2-0.2,0.3-0.2h0.7c0.1,0,0.2,0.1,0.2,0.2
			c0,0,0,0,0,0v13.6c0,0.2-0.1,0.2-0.2,0.2h-0.7c-0.1,0-0.2-0.1-0.2-0.2V167l-3.7,7.5c-0.1,0.1-0.2,0.2-0.3,0.2
			C207.3,174.6,207.2,174.6,207.1,174.5"/>
		<path class="st3" d="M237.7,172.2v5.6h5.3c0.2,0,0.2,0.1,0.2,0.2v0.6c0,0.1-0.1,0.2-0.2,0.2c0,0,0,0-0.1,0h-6.2
			c-0.2,0-0.3-0.1-0.3-0.2V165c0-0.1,0.1-0.2,0.2-0.2h6.1c0.2,0,0.2,0.1,0.2,0.2v0.6c0,0.1-0.1,0.2-0.2,0.2c0,0,0,0-0.1,0h-5.2v5.3
			h5.1c0.1,0,0.2,0.1,0.2,0.2c0,0,0,0,0,0.1v0.6c0,0.1-0.1,0.2-0.2,0.2c0,0,0,0-0.1,0L237.7,172.2z"/>
		<path class="st3" d="M275.2,178.6c0,0.2-0.1,0.2-0.2,0.2h-0.7c-0.1,0-0.3-0.1-0.3-0.2l-6.2-11.8v11.8c0,0.2-0.1,0.2-0.2,0.2h-0.7
			c-0.2,0-0.3-0.1-0.3-0.2V165c0-0.1,0.1-0.2,0.3-0.2h0.7c0.2,0,0.3,0.1,0.4,0.2l6.2,11.8V165c0-0.1,0.1-0.2,0.2-0.2h0.7
			c0.2,0,0.2,0.1,0.2,0.2L275.2,178.6z"/>
		<path class="st3" d="M298.3,165c0-0.1,0.1-0.2,0.2-0.2h7.2c0.1,0,0.2,0.1,0.2,0.2c0,0,0,0,0,0.1v0.6c0,0.1-0.1,0.2-0.2,0.2
			c0,0,0,0-0.1,0h-3v12.8c0,0.2-0.1,0.2-0.2,0.2h-0.7c-0.2,0-0.3-0.1-0.3-0.2v-12.8h-3c-0.1,0-0.2-0.1-0.2-0.2c0,0,0,0,0-0.1
			L298.3,165z"/>
		<path class="st3" d="M336.4,166.3c0.9,1.7,1.4,3.6,1.2,5.5c0,2.5-0.4,4.3-1.2,5.5c-1.6,2-4.6,2.3-6.7,0.7
			c-0.3-0.2-0.5-0.4-0.7-0.7c-0.8-1.2-1.2-3-1.2-5.5c-0.1-1.9,0.3-3.8,1.2-5.5c1.6-2,4.6-2.4,6.6-0.7
			C335.9,165.8,336.2,166.1,336.4,166.3 M335.5,176.5c0.7-1.5,1-3.1,0.9-4.7c0.1-1.6-0.2-3.2-0.9-4.7c-1-1.5-3.1-2-4.7-0.9
			c-0.4,0.2-0.7,0.5-0.9,0.9c-0.7,1.5-1,3.1-0.9,4.7c-0.1,1.6,0.2,3.2,0.9,4.7c1,1.5,3.1,2,4.7,0.9
			C335,177.2,335.3,176.9,335.5,176.5"/>
		<path class="st4" d="M401.7,147.5c5.8,0,10.5,4.7,10.5,10.5c0,5.8-4.7,10.5-10.5,10.5s-10.5-4.7-10.5-10.5c0,0,0,0,0,0
			C391.2,152.2,395.9,147.5,401.7,147.5z M410,158c0-4.6-3.7-8.3-8.3-8.3c-4.6,0-8.3,3.7-8.3,8.3c0,4.6,3.7,8.3,8.3,8.3l0,0
			C406.3,166.3,410,162.6,410,158C410,158,410,158,410,158z"/>
		<path class="st4" d="M403.5,158.1c0.6,0.2,1.2,0.7,1.5,1.2c0.1,0.2,0.3,0.5,0.4,0.7l1.5,3v0.1v0.1h-2.9c-0.1,0-0.1,0-0.2-0.1
			c-0.5-0.9-0.9-1.8-1.4-2.8c-0.1-0.3-0.3-0.5-0.5-0.8c-0.3-0.3-0.6-0.5-1-0.5c-0.3,0-0.6,0-0.9,0c-0.1,0-0.1,0-0.1,0.1v3.9
			c0,0.1,0,0.1-0.1,0.1h-2.6c-0.1,0-0.1,0-0.1-0.1v-10.7c0-0.1,0-0.1,0.1-0.1h4.4c0.7,0,1.4,0.1,2.1,0.3c0.5,0.2,1,0.5,1.3,0.9
			c0.3,0.3,0.4,0.7,0.5,1.2c0.1,0.5,0.1,1.1,0,1.6c-0.2,0.7-0.7,1.3-1.3,1.6C404,157.9,403.8,158,403.5,158.1z M399.9,155.7v1.3
			c0,0.1,0,0.1,0.1,0.1h1.1c0.3,0,0.5,0,0.8-0.1c0.4-0.1,0.7-0.4,0.8-0.8c0.1-0.3,0.1-0.7,0-1c-0.1-0.4-0.3-0.6-0.7-0.8
			c-0.2-0.1-0.4-0.1-0.6-0.1c-0.5,0-0.9,0-1.4,0c-0.1,0-0.1,0-0.1,0.1L399.9,155.7z"/>
	</g>
</g>
</svg>
