<?xml version="1.0" encoding="UTF-8"?>
<svg id="Camada_2" data-name="Camada 2" xmlns="http://www.w3.org/2000/svg" viewBox="0 0 1474.66 450">
  <defs>
    <style>
      .cls-1 {
        fill: #4a5761;
      }

      .cls-2 {
        fill: #fba206;
      }

      .cls-3 {
        fill: #022a65;
      }
    </style>
  </defs>
  <g id="Camada_1-2" data-name="Camada 1">
    <path class="cls-3" d="M99.16,266.07c11.3,6.7,20.4,9.1,23.2,9.7,6.4,1.3,12.8,2,19.3,2,8.2,0,16.5-1.2,24.3-3.7,13.5-4.3,25.7-12.2,36.4-23.5,9.3-9.6,16.4-21.2,20.8-33.9,4.1-11.3,6.7-23.1,7.9-35.1-3.5,1.9-7.1,3.4-10.9,4.5-4.8,1.4-12.1,1.8-13.2,1.9-5.8,7.5-15.1,18-25.5,23.1-9,4.4-18.9,6.7-29,6.6-12.4,0-23.9-3.1-33.2-5.8-51.9-15.4-79.9-57.6-84.5-64.6C9.96,109.57,6.86,68.27,6.86,49.37l-.6.3v-1.4.2c-.3.5-.5,1-.6,1.5C3.56,60.17-1.54,86.77.46,116.57c.8,11.3,3.1,22.5,6.8,33.2h0c5.8,15.9,13.1,31,21.8,45.3,0,0,28.5,46.4,70.1,71.1v-.1Z"/>
    <path class="cls-3" d="M63.96,171.37c19.3,20.5,40,28.7,57.2,33.8,9.8,2.9,20.3,5.6,31.4,5.6,9,.1,18-1.9,26.2-5.9,7.4-3.6,14.4-10.6,19.5-16.7-65.3,5.3-114.6-108-6.3-186.6,0,0-4.1-3-15.1-.7l-109.5,27.7-25.1,6.5c-8.4,18.1-12.3,38.1-11.4,58.1.3,6.5,2.8,46.1,33.1,78.3v-.1Z"/>
    <path class="cls-3" d="M338.86,176.77c0-5.5-.4-11.1-1.2-16.6,0,0-.8-4.2-1.2-6.2-2.2-10.9-5.8-20.8-11.5-27.9-.6-.8-1-1.8-1.1-2.8,0-1,.2-2,.8-2.9l7.9-12.2c.1-.2.2-.4.2-.7,0-.2,0-.5-.1-.7,0-.2-.2-.4-.4-.6-.2-.2-.4-.3-.6-.3-3.1-.9-9.5-2-14.1,2-.2.2-.5,0-.4-.2,1.3-3.2,5.7-13.5,10.5-17.5,1-.8.5-2.4-.9-2.6-5.1-.6-10.2.5-14.6,3-.5.3-1-.3-.7-.7,4.5-6.4,24.4-15.6,22.2-32.2-.2-1.5-2.4-1.8-3.1-.5-3.5,6.8-17.9,9.5-25.4,16.1-.5.4-1.2-.1-.9-.6,1.6-2.7,3.8-7.3,3.6-11.8,0-1.5-2.1-2-3-.8-3,4.5-12.7,3.3-30.3,6.6-26.5,4.9-26.3,6.7-40.3,11.9-9.2,3.5-23.5,12.2-32.2,17.8-4.4,2.8-4.3,11.6-5.5,16.4-1.5,6.2-1.6,10.6-10.2,15.9-5.5,3.4-7.9,10-5.5,15.7,1.5,3.6,4.8,7.2,11.9,10.5,1.8.8,2.2.4.9-1.1-4-4.4-2.2-6.2-.7-7.1,2.9-1.8,7.2-2.1,14.6-5.2,7.4-3.2,11.4-5.1,14.2-4.4.3,0,.8.2,1.3.3,11,3.4,15.1,32,14.7,34.2-.4,16.1-3.4,32-8.9,47-1.9,5.4-4.3,10.7-7,15.7-2.7,4.8-19.9,34.8-54.3,45.8-8.5,2.7-17.4,4.1-26.3,4.1-6.9,0-13.7-.8-20.4-2.1-11.5-2.1-19.5-7.2-24.3-9.9-30.1-17.3-58.3-38.7-62-41.5l-.9-.7c.2.5.3.8.3.8,28.7,46.9,78.6,87.7,128.6,118.4l11.1,6.8c2.9,1.8,6.2,2.8,9.6,3.1,3.4.2,6.8-.4,9.9-1.8,0,0,145.4-85.5,145.3-180.8l.4.3ZM229.06,102.47l-12,10.5c-.3.2-1.7-.9-1.8-1.2-.9-3.1,1.1-6.4,4.5-7.2l9.2-2.3h.1v.1h0v.1Z"/>
    <path class="cls-1" d="M587.16,88.67c17.7,0,29.2,5,37.5,13,8.3,7.9,13.3,18.6,13.8,29.9.6,11.3-3.3,22.4-10.8,31-8.5,9.8-21.3,16.2-40.4,16.2h-57.5v30.3h-33.4v-112.9c0-5,2.8-7.5,8.1-7.5,0,0,82.7,0,82.7,0ZM587.86,149.17c7.4,0,11.6-2.1,14.4-5.7,2-2.4,3.1-5.5,3-8.6,0-3.3-1-6.5-3.1-9.1-2.8-3.2-7-5.3-14.2-5.3h-55.8c-1.5,0-2.4.7-2.4,2.5v26.2h58.2-.1Z"/>
    <path class="cls-1" d="M730.26,209.07c-22.3,0-38.8-7.5-50.2-19.6-11-11.8-16.8-27.4-16-43.3.8-15.9,8-30.9,20.1-41.7,11.1-9.8,26-15.9,46.2-15.9h26.2c20.1,0,35.1,6.1,46.2,15.9,12.1,10.8,19.3,25.8,20,41.7s-5,31.4-16,43.3c-11.4,12.1-27.9,19.6-50.2,19.6h-26.3ZM730.26,120.47c-11.3,0-18.2,3-23.6,7.8-5.6,5.1-9,12.1-9.2,19.6-.3,7.4,2.5,14.7,7.7,20.2,5.3,5.7,13.3,9.3,25.1,9.3h26.2c11.8,0,19.7-3.6,25.1-9.3,5.2-5.5,8-12.7,7.7-20.2-.3-7.4-3.6-14.5-9.2-19.6-5.4-4.8-12.4-7.8-23.6-7.8h-26.2Z"/>
    <path class="cls-1" d="M983.86,88.67v31.9h-54.7v88.5h-33.5v-88.5h-54.9v-31.9s143.1,0,143.1,0Z"/>
    <path class="cls-1" d="M1142.76,88.67v31.9h-94.9c-2,0-3,1.1-3,3v13.7h97.3v23.2h-97.3v14.6c0,2.1.9,3.2,3,3.2h94.9v30.8h-113.8c-11.6,0-17.5-5.5-17.5-16.7v-87.4c0-10.9,5.9-16.2,17.7-16.2h113.6v-.1Z"/>
    <path class="cls-1" d="M1206.66,209.07h-33.4v-112.9c0-5,2.8-7.5,8.3-7.5h88.6c15.3,0,25.1,4.4,31.9,11.4,6.3,6.4,9.9,14.8,10,23.7,0,9.6-3,18.7-11.8,24.9,8.3,4.8,12,11.2,12,24.9v24c0,3.8.1,7.6.6,11.4h-33.8c-.4-2.7-.6-5.3-.6-8v-24c0-7.7-3.9-10.7-13.7-10.7h-58.2v42.7l.1.1ZM1265.76,138.87c1.8.1,3.6-.2,5.2-.9s3.1-1.7,4.2-3c1.5-1.8,2.4-4,2.4-6.2,0-2.5-.9-5-2.8-6.8-1.9-2-4.8-3.2-9.1-3.2h-56.3c-.4,0-.8,0-1.1.1-.3.1-.7.3-.9.6-.3.3-.5.6-.6.9s-.2.7-.1,1.1v17.5h59.2l-.1-.1Z"/>
    <path class="cls-1" d="M1474.66,88.67v31.9h-94.9c-2,0-3,1.1-3,3v13.7h97.3v23.2h-97.3v14.6c0,2.1.9,3.2,3,3.2h94.9v30.8h-113.8c-11.6,0-17.5-5.5-17.5-16.7v-87.4c0-10.9,5.9-16.2,17.7-16.2h113.6v-.1Z"/>
    <path class="cls-2" d="M206.56,357.37c.1.1.3.2.5.3h.6c62.6-25.6,140.3-76.2,168.5-138.1,8.1-17.7,11.8-45,13.1-61.3.2-2.4-.5-4.7-2-6.6-1.5-1.8-3.6-3-5.9-3.3-6.29-5.65-43.23,50.18-123.74,75.25,56.34-8.89,87.15-30,82.21-12.84-20.92,72.93-96,121.34-133.37,146.6h.1Z"/>
    
    <!-- Texto LOCADORA -->
    <text x="496" y="280" font-family="Arial, sans-serif" font-size="60" font-weight="600" fill="#4a5761">LOCADORA</text>
    
    <!-- Linha laranja -->
    <rect x="496" y="290" width="410" height="6" fill="#fba206"/>
  </g>
</svg>
