<?xml version="1.0" encoding="UTF-8"?>
<svg id="Camada_2" data-name="Camada 2" xmlns="http://www.w3.org/2000/svg" viewBox="0 0 658.92 476.89">
  <defs>
    <style>
      .cls-1 {
        fill: #fff;
      }
    </style>
  </defs>
  <g id="Camada_1-2" data-name="Camada 1">
    <g>
      <path class="cls-1" d="M232.54,270.34c11.48,6.81,20.73,9.25,23.57,9.86,6.5,1.32,13.01,2.03,19.61,2.03,8.33,0,16.76-1.22,24.69-3.76,13.72-4.37,26.11-12.4,36.98-23.88,9.45-9.75,16.66-21.54,21.13-34.44,4.17-11.48,6.81-23.47,8.03-35.66-3.56,1.93-7.21,3.45-11.07,4.57-4.88,1.42-12.29,1.83-13.41,1.93-5.89,7.62-15.34,18.29-25.91,23.47-9.14,4.47-19.2,6.81-29.47,6.71-12.6,0-24.28-3.15-33.73-5.89-52.73-15.65-81.18-58.52-85.86-65.64-25.2-38.3-28.35-80.27-28.35-99.47l-.61.3v-1.42.2c-.3.51-.51,1.02-.61,1.52-2.13,10.36-7.32,37.39-5.28,67.67.81,11.48,3.15,22.86,6.91,33.73h0c5.89,16.16,13.31,31.5,22.15,46.03,0,0,28.96,47.14,71.22,72.24v-.1Z"/>
      <path class="cls-1" d="M196.77,174.12c19.61,20.83,40.64,29.16,58.12,34.34,9.96,2.95,20.63,5.69,31.9,5.69,9.14.1,18.29-1.93,26.62-5.99,7.52-3.66,14.63-10.77,19.81-16.97-66.35,5.39-116.44-109.73-6.4-189.59,0,0-4.17-3.05-15.34-.71l-111.26,28.14-25.5,6.6c-8.53,18.39-12.5,38.71-11.58,59.03.3,6.6,2.84,46.84,33.63,79.56v-.1Z"/>
      <path class="cls-1" d="M341.66,363.1c.1.1.3.2.51.3h.61c63.6-26.01,142.55-77.42,171.2-140.32,8.23-17.98,11.99-45.72,13.31-62.28.2-2.44-.51-4.78-2.03-6.71-1.52-1.83-3.66-3.05-5.99-3.35-6.39-5.74-43.92,50.99-125.73,76.45,57.24-9.04,88.55-30.48,83.53-13.05-21.26,74.1-97.54,123.28-135.51,148.95h.1Z"/>
      <path class="cls-1" d="M469.65,214.11c-3.95.82-9.72,2.61-16.15,4.6-14.45,4.47-34.23,10.6-59.01,14.51-.32.05-.64.08-.96.08-2.79,0-5.28-1.92-5.93-4.71-.73-3.11,1.07-6.26,4.12-7.21,36.76-11.44,64.52-29.48,84.3-45-.13-4.54-.5-9.12-1.16-13.64,0,0-.81-4.27-1.22-6.3-2.24-11.07-5.89-21.13-11.68-28.35-.61-.81-1.02-1.83-1.12-2.84,0-1.02.2-2.03.81-2.95l8.03-12.4c.1-.2.2-.41.2-.71,0-.2,0-.51-.1-.71,0-.2-.2-.41-.41-.61-.2-.2-.41-.3-.61-.3-3.15-.91-9.65-2.03-14.33,2.03-.2.2-.51,0-.41-.2,1.32-3.25,5.79-13.72,10.67-17.78,1.02-.81.51-2.44-.91-2.64-5.18-.61-10.36.51-14.83,3.05-.51.3-1.02-.3-.71-.71,4.57-6.5,24.79-15.85,22.56-32.72-.2-1.52-2.44-1.83-3.15-.51-3.56,6.91-18.19,9.65-25.81,16.36-.51.41-1.22-.1-.91-.61,1.63-2.74,3.86-7.42,3.66-11.99,0-1.52-2.13-2.03-3.05-.81-3.05,4.57-12.9,3.35-30.79,6.71-26.93,4.98-26.72,6.81-40.95,12.09-9.35,3.56-23.88,12.4-32.72,18.09-4.47,2.84-4.37,11.79-5.59,16.66-1.52,6.3-1.63,10.77-10.36,16.16-5.59,3.45-8.03,10.16-5.59,15.95,1.52,3.66,4.88,7.32,12.09,10.67,1.83.81,2.24.41.91-1.12-4.06-4.47-2.24-6.3-.71-7.21,2.95-1.83,7.32-2.13,14.83-5.28,7.52-3.25,11.58-5.18,14.43-4.47.3,0,.81.2,1.32.3,11.18,3.45,15.34,32.51,14.94,34.75-.41,16.36-3.45,32.51-9.04,47.75-1.93,5.49-4.37,10.87-7.11,15.95-2.74,4.88-20.22,35.36-55.17,46.53-8.64,2.74-17.68,4.17-26.72,4.17-7.01,0-13.92-.81-20.73-2.13-11.68-2.13-19.81-7.32-24.69-10.06-30.58-17.58-59.24-39.32-62.99-42.17l-.91-.71c.2.51.3.81.3.81,29.16,47.65,79.86,89.11,130.66,120.3l11.28,6.91c2.95,1.83,6.3,2.84,9.75,3.15,3.45.2,6.91-.41,10.06-1.83,0,0,113.91-66.99,141.61-148.89ZM364.52,104.01v.1l-12.19,10.67c-.3.2-1.73-.91-1.83-1.22-.91-3.15,1.12-6.5,4.57-7.32l9.35-2.34h.1v.1Z"/>
    </g>
    <g>
      <path class="cls-1" d="M61.16,395.79c11.92,0,19.67,3.37,25.26,8.76,5.59,5.32,8.96,12.53,9.29,20.14.4,7.61-2.22,15.09-7.27,20.88-5.73,6.6-14.35,10.91-27.21,10.91H22.5v20.41H0v-76.04c0-3.37,1.89-5.05,5.46-5.05,0,0,55.7,0,55.7,0ZM61.63,436.54c4.98,0,7.81-1.41,9.7-3.84,1.35-1.62,2.09-3.7,2.02-5.79,0-2.22-.67-4.38-2.09-6.13-1.89-2.16-4.71-3.57-9.56-3.57H24.11c-1.01,0-1.62.47-1.62,1.68v17.65h39.2-.07Z"/>
      <path class="cls-1" d="M157.54,476.89c-15.02,0-26.13-5.05-33.81-13.2-7.41-7.95-11.32-18.45-10.78-29.16.54-10.71,5.39-20.81,13.54-28.09,7.48-6.6,17.51-10.71,31.12-10.71h17.65c13.54,0,23.64,4.11,31.12,10.71,8.15,7.27,13,17.38,13.47,28.09s-3.37,21.15-10.78,29.16c-7.68,8.15-18.79,13.2-33.81,13.2h-17.71ZM157.54,417.21c-7.61,0-12.26,2.02-15.9,5.25-3.77,3.44-6.06,8.15-6.2,13.2-.2,4.98,1.68,9.9,5.19,13.61,3.57,3.84,8.96,6.26,16.91,6.26h17.65c7.95,0,13.27-2.42,16.91-6.26,3.5-3.7,5.39-8.55,5.19-13.61-.2-4.98-2.42-9.77-6.2-13.2-3.64-3.23-8.35-5.25-15.9-5.25h-17.65Z"/>
      <path class="cls-1" d="M328.35,395.79v21.49h-36.84v59.61h-22.56v-59.61h-36.98v-21.49h96.38Z"/>
      <path class="cls-1" d="M435.37,395.79v21.49h-63.92c-1.35,0-2.02.74-2.02,2.02v9.23h65.53v15.63h-65.53v9.83c0,1.41.61,2.16,2.02,2.16h63.92v20.74h-76.65c-7.81,0-11.79-3.7-11.79-11.25v-58.87c0-7.34,3.97-10.91,11.92-10.91h76.51v-.07Z"/>
      <path class="cls-1" d="M478.41,476.89h-22.5v-76.04c0-3.37,1.89-5.05,5.59-5.05h59.67c10.31,0,16.91,2.96,21.49,7.68,4.24,4.31,6.67,9.97,6.74,15.96,0,6.47-2.02,12.6-7.95,16.77,5.59,3.23,8.08,7.54,8.08,16.77v16.16c0,2.56.07,5.12.4,7.68h-22.77c-.27-1.82-.4-3.57-.4-5.39v-16.16c0-5.19-2.63-7.21-9.23-7.21h-39.2v28.76l.07.07ZM518.21,429.61c1.21.07,2.42-.13,3.5-.61s2.09-1.15,2.83-2.02c1.01-1.21,1.62-2.69,1.62-4.18,0-1.68-.61-3.37-1.89-4.58-1.28-1.35-3.23-2.16-6.13-2.16h-37.92c-.27,0-.54,0-.74.07-.2.07-.47.2-.61.4-.2.2-.34.4-.4.61s-.13.47-.07.74v11.79h39.87l-.07-.07Z"/>
      <path class="cls-1" d="M658.92,395.79v21.49h-63.92c-1.35,0-2.02.74-2.02,2.02v9.23h65.53v15.63h-65.53v9.83c0,1.41.61,2.16,2.02,2.16h63.92v20.74h-76.65c-7.81,0-11.79-3.7-11.79-11.25v-58.87c0-7.34,3.97-10.91,11.92-10.91h76.51v-.07Z"/>
    </g>
  </g>
</svg>