<?xml version="1.0" encoding="UTF-8"?>
<svg id="Camada_2" data-name="Camada 2" xmlns="http://www.w3.org/2000/svg" viewBox="0 0 843.19 205.33">
  <defs>
    <style>
      .cls-1 {
        fill: #4a5761;
      }

      .cls-2 {
        fill: #fba206;
      }

      .cls-3 {
        fill: #022a65;
      }
    </style>
  </defs>
  <g id="Camada_1-2" data-name="Camada 1">
    <g>
      <g>
        <path class="cls-1" d="M335.73,68.27c10.12,0,16.7,2.86,21.44,7.43,4.75,4.52,7.6,10.64,7.89,17.1.34,6.46-1.89,12.81-6.18,17.73-4.86,5.6-12.18,9.26-23.1,9.26h-32.88v17.33h-19.1v-64.55c0-2.86,1.6-4.29,4.63-4.29h47.29ZM336.13,102.87c4.23,0,6.63-1.2,8.23-3.26,1.14-1.37,1.77-3.14,1.72-4.92,0-1.89-.57-3.72-1.77-5.2-1.6-1.83-4-3.03-8.12-3.03h-31.91c-.86,0-1.37.4-1.37,1.43v14.98h33.28-.06Z"/>
        <path class="cls-1" d="M417.55,137.12c-12.75,0-22.19-4.29-28.7-11.21-6.29-6.75-9.61-15.67-9.15-24.76.46-9.09,4.57-17.67,11.49-23.84,6.35-5.6,14.87-9.09,26.42-9.09h14.98c11.49,0,20.07,3.49,26.42,9.09,6.92,6.18,11.04,14.75,11.44,23.84.4,9.09-2.86,17.95-9.15,24.76-6.52,6.92-15.95,11.21-28.7,11.21h-15.04ZM417.55,86.46c-6.46,0-10.41,1.72-13.49,4.46-3.2,2.92-5.15,6.92-5.26,11.21-.17,4.23,1.43,8.41,4.4,11.55,3.03,3.26,7.6,5.32,14.35,5.32h14.98c6.75,0,11.26-2.06,14.35-5.32,2.97-3.14,4.57-7.26,4.4-11.55-.17-4.23-2.06-8.29-5.26-11.21-3.09-2.74-7.09-4.46-13.49-4.46h-14.98Z"/>
        <path class="cls-1" d="M562.56,68.27v18.24h-31.28v50.6h-19.15v-50.6h-31.39v-18.24s81.82,0,81.82,0Z"/>
        <path class="cls-1" d="M653.42,68.27v18.24h-54.26c-1.14,0-1.72.63-1.72,1.72v7.83h55.64v13.27h-55.64v8.35c0,1.2.51,1.83,1.72,1.83h54.26v17.61h-65.07c-6.63,0-10.01-3.14-10.01-9.55v-49.97c0-6.23,3.37-9.26,10.12-9.26h64.96v-.06Z"/>
        <path class="cls-1" d="M689.95,137.12h-19.1v-64.55c0-2.86,1.6-4.29,4.75-4.29h50.66c8.75,0,14.35,2.52,18.24,6.52,3.6,3.66,5.66,8.46,5.72,13.55,0,5.49-1.72,10.69-6.75,14.24,4.75,2.74,6.86,6.4,6.86,14.24v13.72c0,2.17.06,4.35.34,6.52h-19.33c-.23-1.54-.34-3.03-.34-4.57v-13.72c0-4.4-2.23-6.12-7.83-6.12h-33.28v24.42l.06.06ZM723.75,96.98c1.03.06,2.06-.11,2.97-.51s1.77-.97,2.4-1.72c.86-1.03,1.37-2.29,1.37-3.55,0-1.43-.51-2.86-1.6-3.89-1.09-1.14-2.74-1.83-5.2-1.83h-32.19c-.23,0-.46,0-.63.06-.17.06-.4.17-.51.34-.17.17-.29.34-.34.51s-.11.4-.06.63v10.01h33.85l-.06-.06Z"/>
        <path class="cls-1" d="M843.19,68.27v18.24h-54.26c-1.14,0-1.72.63-1.72,1.72v7.83h55.64v13.27h-55.64v8.35c0,1.2.51,1.83,1.72,1.83h54.26v17.61h-65.07c-6.63,0-10.01-3.14-10.01-9.55v-49.97c0-6.23,3.37-9.26,10.12-9.26h64.96v-.06Z"/>
      </g>
      <g>
        <path class="cls-3" d="M56.7,152.13c6.46,3.83,11.66,5.2,13.27,5.55,3.66.74,7.32,1.14,11.04,1.14,4.69,0,9.43-.69,13.89-2.12,7.72-2.46,14.69-6.98,20.81-13.44,5.32-5.49,9.38-12.12,11.89-19.38,2.34-6.46,3.83-13.21,4.52-20.07-2,1.09-4.06,1.94-6.23,2.57-2.74.8-6.92,1.03-7.55,1.09-3.32,4.29-8.63,10.29-14.58,13.21-5.15,2.52-10.81,3.83-16.58,3.77-7.09,0-13.67-1.77-18.98-3.32-29.68-8.81-45.69-32.94-48.32-36.94C5.69,62.65,3.92,39.03,3.92,28.23l-.34.17v-.8.11c-.17.29-.29.57-.34.86-1.2,5.83-4.12,21.04-2.97,38.08.46,6.46,1.77,12.87,3.89,18.98h0c3.32,9.09,7.49,17.73,12.47,25.9,0,0,16.3,26.53,40.08,40.65v-.06Z"/>
        <path class="cls-3" d="M36.57,97.99c11.04,11.72,22.87,16.41,32.71,19.33,5.6,1.66,11.61,3.2,17.95,3.2,5.15.06,10.29-1.09,14.98-3.37,4.23-2.06,8.23-6.06,11.15-9.55-37.34,3.03-65.53-61.75-3.6-106.7,0,0-2.34-1.72-8.63-.4l-62.61,15.84-14.35,3.72c-4.8,10.35-7.03,21.79-6.52,33.22.17,3.72,1.6,26.36,18.93,44.77v-.06Z"/>
        <path class="cls-2" d="M118.11,204.34c.06.06.17.11.29.17h.34c35.79-14.64,80.22-43.57,96.35-78.96,4.63-10.12,6.75-25.73,7.49-35.05.11-1.37-.29-2.69-1.14-3.77-.86-1.03-2.06-1.72-3.37-1.89-3.6-3.23-24.72,28.69-70.75,43.02,32.21-5.09,49.83-17.15,47.01-7.34-11.96,41.7-54.89,69.38-76.26,83.82h.06Z"/>
        <path class="cls-3" d="M190.13,120.49c-2.22.46-5.47,1.47-9.09,2.59-8.13,2.52-19.27,5.97-33.21,8.17-.18.03-.36.04-.54.04-1.57,0-2.97-1.08-3.34-2.65-.41-1.75.6-3.52,2.32-4.06,20.69-6.44,36.31-16.59,47.44-25.33-.07-2.56-.28-5.13-.65-7.68,0,0-.46-2.4-.69-3.55-1.26-6.23-3.32-11.89-6.58-15.95-.34-.46-.57-1.03-.63-1.6,0-.57.11-1.14.46-1.66l4.52-6.98c.06-.11.11-.23.11-.4,0-.11,0-.29-.06-.4,0-.11-.11-.23-.23-.34-.11-.11-.23-.17-.34-.17-1.77-.51-5.43-1.14-8.06,1.14-.11.11-.29,0-.23-.11.74-1.83,3.26-7.72,6-10.01.57-.46.29-1.37-.51-1.49-2.92-.34-5.83.29-8.35,1.72-.29.17-.57-.17-.4-.4,2.57-3.66,13.95-8.92,12.69-18.41-.11-.86-1.37-1.03-1.77-.29-2,3.89-10.24,5.43-14.52,9.21-.29.23-.69-.06-.51-.34.91-1.54,2.17-4.17,2.06-6.75,0-.86-1.2-1.14-1.72-.46-1.72,2.57-7.26,1.89-17.33,3.77-15.15,2.8-15.04,3.83-23.04,6.8-5.26,2-13.44,6.98-18.41,10.18-2.52,1.6-2.46,6.63-3.14,9.38-.86,3.55-.91,6.06-5.83,9.09-3.14,1.94-4.52,5.72-3.14,8.98.86,2.06,2.74,4.12,6.8,6,1.03.46,1.26.23.51-.63-2.29-2.52-1.26-3.55-.4-4.06,1.66-1.03,4.12-1.2,8.35-2.97,4.23-1.83,6.52-2.92,8.12-2.52.17,0,.46.11.74.17,6.29,1.94,8.63,18.3,8.41,19.56-.23,9.21-1.94,18.3-5.09,26.87-1.09,3.09-2.46,6.12-4,8.98-1.54,2.74-11.38,19.9-31.05,26.19-4.86,1.54-9.95,2.34-15.04,2.34-3.95,0-7.83-.46-11.66-1.2-6.58-1.2-11.15-4.12-13.89-5.66-17.21-9.89-33.34-22.13-35.45-23.73l-.51-.4c.11.29.17.46.17.46,16.41,26.82,44.94,50.15,73.53,67.7l6.35,3.89c1.66,1.03,3.55,1.6,5.49,1.77,1.94.11,3.89-.23,5.66-1.03,0,0,64.1-37.7,79.69-83.79ZM130.97,58.53v.06l-6.86,6c-.17.11-.97-.51-1.03-.69-.51-1.77.63-3.66,2.57-4.12l5.26-1.32h.06v.06Z"/>
      </g>
    </g>
  </g>
</svg>