<?xml version="1.0" encoding="UTF-8"?><svg id="Camada_2" xmlns="http://www.w3.org/2000/svg" viewBox="0 0 426.32 344.64"><defs><style>.cls-1{fill:#1a1414;}.cls-2{fill:#006db0;}</style></defs><g id="Camada_1-2"><g><path class="cls-2" d="m190.97,72.92c-35.91-8.02-55.28-20.15-58.11-36.23-3.69,4.33-7.02,8.97-9.96,13.88,11.49,21.38,42.64,31.06,64.55,35.99,37.53,11,68.2,16.95,104.09,32.29,7.21,4.45,13.57,9.78,18.87,16.15,1.68-5.33,2.95-10.85,3.76-16.51-4.8-4.53-10.2-8.59-16.17-12.19-37.37-15.96-67.96-21.92-107.03-33.38Z"/><path class="cls-2" d="m242.86,146.69c-29.59-13.58-62.82-19.01-94.21-27.32-14.81-3.92-30.72-9.11-39.57-15.3l-.62-.43-.26-.14v.23c0,5.61.45,11.11,1.31,16.48,7.9,3.85,18.34,7.92,31.7,11.65,25.52,7.13,59.84,13.98,83.78,22.81,26.94,9.95,41.95,21.46,45.05,34.57,4.13-2.82,8.04-5.93,11.71-9.3-6.23-14.5-21.49-25.26-38.89-33.25Z"/><path class="cls-2" d="m212.98,65.05c36.79,10.79,66.99,16.72,101.98,31.39-.38-5.51-1.19-10.9-2.4-16.14-32.57-12.72-60.87-18.57-96.05-28.89-36.03-8.05-55.4-20.22-58.13-36.39-4.31,2.6-8.42,5.5-12.29,8.68,8.81,25.15,43.25,36.02,66.91,41.34Z"/><path class="cls-2" d="m268.4,125.18c-29.59-13.59-62.82-19.01-94.2-27.32-14.81-3.92-30.72-9.11-39.57-15.3l-.62-.43-.66-.36c-7.57-4.17-13.44-9.64-17.72-16.57-2.09,5.21-3.77,10.63-5,16.22,4.52,4.83,9.86,9.01,15.93,12.68,8.28,5.02,21.33,10.98,40.2,16.25,25.52,7.13,59.84,13.98,83.78,22.81,25.3,9.34,40.08,20.06,44.35,32.19,3.22-4.34,6.11-8.95,8.63-13.78-7.53-11.11-20.58-19.72-35.12-26.39Z"/><path class="cls-2" d="m124.38,159.79c12.21,19.42,36.67,39.35,65.84,44.67-28.34-24.66-13.64-44.67-65.84-44.67Z"/><path class="cls-2" d="m296.76,42.36c-12.87-18.99-38.01-38.05-67.35-42.36,29.17,23.66,15.19,44.17,67.35,42.36Z"/></g><path class="cls-1" d="m425.5,328.44c-.08.15-.19.22-.33.22-.11,0-.25-.08-.43-.24-.18-.16-.42-.33-.72-.53-.3-.19-.67-.37-1.12-.53-.45-.16-1.01-.24-1.67-.24s-1.24.09-1.74.28c-.5.19-.92.45-1.26.77-.34.33-.6.7-.77,1.13-.17.43-.27.88-.27,1.35,0,.62.13,1.13.4,1.53.26.4.6.75,1.03,1.03.43.28.92.52,1.46.71.54.19,1.1.38,1.67.57.57.19,1.14.39,1.68.62.54.23,1.03.51,1.46.86.43.34.78.76,1.04,1.26.26.5.39,1.13.39,1.87s-.13,1.48-.39,2.15c-.26.67-.64,1.26-1.14,1.76-.49.5-1.1.89-1.82,1.17-.72.29-1.54.43-2.46.43-1.2,0-2.23-.22-3.09-.64-.86-.43-1.62-1.01-2.27-1.75l.36-.56c.1-.13.22-.19.36-.19.08,0,.17.05.3.15.12.1.27.23.44.38s.38.31.62.49c.24.18.51.34.83.49.32.15.68.28,1.09.38.41.1.88.16,1.4.16.71,0,1.36-.11,1.92-.33.57-.22,1.04-.51,1.43-.89.39-.38.68-.83.89-1.34.21-.52.31-1.07.31-1.66,0-.64-.13-1.17-.39-1.59-.26-.42-.61-.76-1.04-1.04-.43-.28-.91-.51-1.46-.7-.54-.19-1.1-.37-1.68-.55-.57-.18-1.13-.38-1.67-.6-.54-.22-1.03-.51-1.46-.86-.43-.35-.77-.78-1.03-1.3-.26-.52-.39-1.17-.39-1.95,0-.61.12-1.19.35-1.76.23-.56.57-1.07,1.02-1.5.45-.43,1-.78,1.65-1.04.66-.26,1.4-.39,2.24-.39.94,0,1.79.15,2.54.45.75.3,1.43.77,2.05,1.38l-.31.59Zm-20.15,6.86c0-1.27-.18-2.41-.53-3.42-.35-1.01-.84-1.87-1.48-2.57-.63-.7-1.4-1.24-2.3-1.61-.9-.37-1.89-.56-2.99-.56s-2.06.19-2.96.56c-.89.37-1.67.91-2.31,1.61-.65.7-1.15,1.56-1.5,2.57-.36,1.01-.53,2.15-.53,3.42s.17,2.42.53,3.43c.35,1.01.86,1.86,1.5,2.57.64.7,1.41,1.24,2.31,1.61.89.37,1.88.55,2.96.55s2.09-.18,2.99-.55c.89-.37,1.67-.9,2.3-1.61.64-.71,1.13-1.56,1.48-2.57.35-1.01.53-2.15.53-3.43Zm1.36,0c0,1.41-.21,2.68-.63,3.83-.42,1.14-1.01,2.12-1.77,2.93-.76.81-1.67,1.43-2.73,1.87-1.06.44-2.24.66-3.53.66s-2.45-.22-3.51-.66c-1.06-.44-1.97-1.07-2.73-1.87-.76-.81-1.36-1.79-1.78-2.93-.42-1.15-.63-2.42-.63-3.83s.21-2.67.63-3.82c.42-1.14,1.02-2.12,1.78-2.93.76-.81,1.67-1.44,2.73-1.88,1.06-.45,2.23-.67,3.51-.67s2.47.22,3.53.66c1.06.44,1.97,1.07,2.73,1.88.76.81,1.35,1.79,1.77,2.94.42,1.15.63,2.42.63,3.82Zm-35.91-.08h3.16c.8,0,1.53-.1,2.17-.29.64-.19,1.18-.47,1.62-.83s.78-.79,1.01-1.3c.23-.51.35-1.08.35-1.71,0-1.3-.42-2.26-1.27-2.89-.85-.63-2.08-.94-3.7-.94h-3.33v7.97Zm0,.95v8.22h-1.31v-18.19h4.64c2.1,0,3.66.41,4.7,1.22,1.04.81,1.55,2,1.55,3.57,0,.69-.12,1.33-.36,1.9-.24.57-.58,1.08-1.03,1.51-.45.43-.99.79-1.63,1.07-.63.28-1.35.46-2.15.55.21.13.39.3.55.51l6.27,7.87h-1.14c-.14,0-.25-.03-.35-.08-.1-.05-.2-.14-.29-.26l-5.83-7.37c-.15-.19-.3-.32-.47-.4-.17-.08-.43-.12-.78-.12h-2.38Zm-19.53,7.3c.87,0,1.65-.15,2.34-.46.69-.3,1.28-.72,1.75-1.27.48-.54.85-1.17,1.1-1.91.25-.73.38-1.52.38-2.37v-11.26h1.31v11.26c0,1-.16,1.94-.48,2.81-.32.87-.77,1.63-1.37,2.28-.6.65-1.32,1.16-2.17,1.52-.85.37-1.81.55-2.87.55s-2.02-.19-2.87-.55c-.85-.37-1.58-.88-2.17-1.52-.6-.65-1.05-1.41-1.37-2.28-.32-.87-.48-1.81-.48-2.81v-11.26h1.34v11.25c0,.85.12,1.64.38,2.37.25.74.62,1.37,1.09,1.91.48.54,1.06.97,1.75,1.28.68.31,1.47.46,2.34.46Zm-23.88.05c.63,0,1.19-.03,1.71-.09.51-.06.99-.16,1.43-.29.44-.13.86-.28,1.26-.47.4-.18.8-.39,1.2-.62v-4.87h-3.5c-.09,0-.17-.03-.23-.09-.06-.06-.1-.13-.1-.21v-.73h5.04v6.46c-.45.32-.93.6-1.41.85-.49.25-1.01.45-1.57.62-.56.17-1.16.3-1.8.39-.64.09-1.35.14-2.11.14-1.32,0-2.51-.22-3.6-.66-1.08-.44-2.01-1.07-2.79-1.87-.78-.81-1.38-1.79-1.81-2.94-.43-1.15-.64-2.42-.64-3.83s.21-2.68.64-3.82c.43-1.14,1.04-2.12,1.83-2.93.79-.81,1.74-1.43,2.87-1.88,1.13-.44,2.39-.66,3.79-.66.69,0,1.34.05,1.92.14.59.09,1.13.23,1.64.42.5.18.98.41,1.41.68.44.27.86.58,1.26.93l-.35.56c-.08.13-.18.19-.32.19-.08,0-.16-.02-.23-.05-.13-.05-.31-.17-.56-.36-.24-.19-.57-.39-.99-.59-.41-.2-.93-.39-1.56-.55-.63-.16-1.38-.24-2.27-.24-1.18,0-2.24.19-3.19.57-.95.38-1.76.92-2.43,1.62-.67.7-1.19,1.56-1.55,2.57-.36,1.01-.54,2.15-.54,3.4s.18,2.44.55,3.46c.37,1.02.88,1.88,1.55,2.59.66.71,1.46,1.25,2.39,1.63.93.38,1.96.56,3.08.56Zm-17.82-17.32v1.1h-9.57v7.35h7.96v1.08h-7.96v7.55h9.57v1.1h-10.91v-18.19h10.91Zm-21.27,2.22c-.08.15-.19.22-.33.22-.11,0-.25-.08-.43-.24-.18-.16-.42-.33-.72-.53-.3-.19-.67-.37-1.12-.53-.45-.16-1.01-.24-1.67-.24s-1.24.09-1.74.28c-.5.19-.92.45-1.26.77-.34.33-.6.7-.77,1.13-.17.43-.27.88-.27,1.35,0,.62.13,1.13.4,1.53.26.4.6.75,1.03,1.03.43.28.92.52,1.46.71.54.19,1.1.38,1.67.57.58.19,1.14.39,1.68.62.54.23,1.03.51,1.46.86.43.34.78.76,1.04,1.26.26.5.39,1.13.39,1.87s-.13,1.48-.39,2.15c-.26.67-.64,1.26-1.14,1.76-.49.5-1.1.89-1.82,1.17-.72.29-1.54.43-2.46.43-1.2,0-2.23-.22-3.09-.64-.87-.43-1.62-1.01-2.27-1.75l.36-.56c.1-.13.22-.19.36-.19.08,0,.17.05.3.15.12.1.27.23.44.38.17.15.38.31.62.49.24.18.51.34.83.49.32.15.68.28,1.09.38.41.1.88.16,1.4.16.71,0,1.36-.11,1.92-.33.57-.22,1.04-.51,1.43-.89.39-.38.69-.83.89-1.34.21-.52.31-1.07.31-1.66,0-.64-.13-1.17-.39-1.59-.26-.42-.61-.76-1.04-1.04-.43-.28-.91-.51-1.46-.7-.54-.19-1.1-.37-1.68-.55-.57-.18-1.13-.38-1.67-.6-.54-.22-1.03-.51-1.46-.86-.43-.35-.77-.78-1.03-1.3-.26-.52-.39-1.17-.39-1.95,0-.61.12-1.19.35-1.76.23-.56.57-1.07,1.02-1.5.45-.43,1-.78,1.65-1.04.66-.26,1.4-.39,2.24-.39.94,0,1.79.15,2.54.45.75.3,1.43.77,2.05,1.38l-.31.59Zm-32.18-2.22v1.1h-9.57v7.35h7.97v1.08h-7.97v7.55h9.57v1.1h-10.91v-18.19h10.91Zm-22.23,9.09c0-1.26-.18-2.39-.53-3.39-.35-.99-.84-1.83-1.48-2.51-.63-.69-1.4-1.21-2.3-1.57-.89-.36-1.89-.54-2.99-.54h-5.29v16.03h5.29c1.1,0,2.09-.18,2.99-.54.9-.36,1.67-.88,2.3-1.57.64-.69,1.13-1.52,1.48-2.51.35-.99.53-2.13.53-3.4Zm1.36,0c0,1.41-.21,2.67-.63,3.79-.42,1.12-1.01,2.08-1.77,2.87-.76.79-1.67,1.39-2.73,1.81-1.06.42-2.24.63-3.53.63h-6.62v-18.19h6.62c1.29,0,2.47.21,3.53.63,1.06.42,1.97,1.02,2.73,1.81.76.79,1.35,1.75,1.77,2.87.42,1.12.63,2.38.63,3.78Zm-49.44,2.53h8.15l-3.71-9.18c-.06-.15-.12-.31-.18-.5-.06-.18-.12-.38-.18-.58-.06.2-.12.4-.18.58-.06.19-.12.36-.18.51l-3.71,9.17Zm12.17,6.58h-1.01c-.12,0-.22-.03-.3-.1-.08-.06-.14-.14-.18-.25l-2.14-5.28h-8.93l-2.13,5.28c-.03.09-.09.18-.18.24s-.19.1-.31.1h-1l7.44-18.19h1.31l7.44,18.19Zm-33.93-9.17h3.16c.8,0,1.53-.1,2.17-.29.64-.19,1.18-.47,1.62-.83.44-.36.78-.79,1.01-1.3.23-.51.35-1.08.35-1.71,0-1.3-.42-2.26-1.27-2.89-.85-.63-2.08-.94-3.7-.94h-3.33v7.97Zm0,.95v8.22h-1.31v-18.19h4.64c2.1,0,3.66.41,4.7,1.22,1.04.81,1.55,2,1.55,3.57,0,.69-.12,1.33-.36,1.9-.24.57-.58,1.08-1.03,1.51-.45.43-.99.79-1.63,1.07-.63.28-1.35.46-2.15.55.21.13.39.3.55.51l6.27,7.87h-1.14c-.14,0-.25-.03-.35-.08-.1-.05-.2-.14-.29-.26l-5.83-7.37c-.14-.19-.3-.32-.47-.4-.17-.08-.43-.12-.78-.12h-2.38Zm-13.06-.88c0-1.27-.18-2.41-.53-3.42-.35-1.01-.84-1.87-1.48-2.57-.63-.7-1.4-1.24-2.3-1.61-.9-.37-1.89-.56-2.99-.56s-2.06.19-2.95.56c-.89.37-1.67.91-2.31,1.61-.65.7-1.15,1.56-1.5,2.57-.36,1.01-.53,2.15-.53,3.42s.17,2.42.53,3.43c.35,1.01.86,1.86,1.5,2.57.64.7,1.41,1.24,2.31,1.61.89.37,1.88.55,2.95.55s2.09-.18,2.99-.55c.89-.37,1.67-.9,2.3-1.61.64-.71,1.13-1.56,1.48-2.57.35-1.01.53-2.15.53-3.43Zm1.36,0c0,1.41-.21,2.68-.63,3.83-.42,1.14-1.01,2.12-1.77,2.93-.76.81-1.67,1.43-2.73,1.87-1.06.44-2.24.66-3.53.66s-2.45-.22-3.51-.66c-1.06-.44-1.97-1.07-2.73-1.87-.76-.81-1.36-1.79-1.78-2.93-.42-1.15-.63-2.42-.63-3.83s.21-2.67.63-3.82c.42-1.14,1.02-2.12,1.78-2.93.76-.81,1.67-1.44,2.73-1.88s2.23-.67,3.51-.67,2.47.22,3.53.66c1.06.44,1.97,1.07,2.73,1.88.76.81,1.35,1.79,1.77,2.94.42,1.15.63,2.42.63,3.82Zm-23.53-9.1v1.13h-6.38v17.06h-1.31v-17.06h-6.42v-1.13h14.12Zm-21.89,0v1.1h-9.57v7.35h7.97v1.08h-7.97v7.55h9.57v1.1h-10.91v-18.19h10.91Zm-31.15,9.02h3.16c.8,0,1.53-.1,2.17-.29.64-.19,1.18-.47,1.62-.83.44-.36.78-.79,1.01-1.3.23-.51.35-1.08.35-1.71,0-1.3-.42-2.26-1.27-2.89-.85-.63-2.08-.94-3.7-.94h-3.33v7.97Zm0,.95v8.22h-1.31v-18.19h4.64c2.1,0,3.66.41,4.7,1.22,1.04.81,1.55,2,1.55,3.57,0,.69-.12,1.33-.36,1.9-.24.57-.58,1.08-1.03,1.51-.45.43-.99.79-1.63,1.07-.63.28-1.35.46-2.15.55.21.13.39.3.55.51l6.27,7.87h-1.14c-.14,0-.25-.03-.35-.08-.1-.05-.2-.14-.29-.26l-5.83-7.37c-.15-.19-.3-.32-.47-.4-.17-.08-.43-.12-.78-.12h-2.38Zm-21.94-.95h3.16c.8,0,1.53-.1,2.17-.29.64-.19,1.18-.47,1.62-.83.44-.36.78-.79,1.01-1.3.23-.51.35-1.08.35-1.71,0-1.3-.42-2.26-1.27-2.89-.85-.63-2.08-.94-3.7-.94h-3.33v7.97Zm0,.95v8.22h-1.31v-18.19h4.64c2.1,0,3.66.41,4.7,1.22,1.04.81,1.55,2,1.55,3.57,0,.69-.12,1.33-.36,1.9-.24.57-.58,1.08-1.03,1.51-.45.43-.99.79-1.63,1.07-.63.28-1.35.46-2.15.55.21.13.39.3.55.51l6.27,7.87h-1.14c-.14,0-.25-.03-.35-.08-.1-.05-.2-.14-.29-.26l-5.83-7.37c-.14-.19-.3-.32-.47-.4-.17-.08-.43-.12-.78-.12h-2.38Zm-13.06-.88c0-1.27-.18-2.41-.53-3.42-.35-1.01-.84-1.87-1.48-2.57-.63-.7-1.41-1.24-2.3-1.61-.9-.37-1.89-.56-2.99-.56s-2.06.19-2.95.56c-.89.37-1.67.91-2.31,1.61-.65.7-1.15,1.56-1.5,2.57-.36,1.01-.53,2.15-.53,3.42s.17,2.42.53,3.43c.35,1.01.86,1.86,1.5,2.57.64.7,1.41,1.24,2.31,1.61.89.37,1.88.55,2.95.55s2.09-.18,2.99-.55c.89-.37,1.67-.9,2.3-1.61.64-.71,1.13-1.56,1.48-2.57.35-1.01.53-2.15.53-3.43Zm1.36,0c0,1.41-.21,2.68-.63,3.83-.42,1.14-1.01,2.12-1.77,2.93-.76.81-1.67,1.43-2.73,1.87-1.06.44-2.24.66-3.53.66s-2.45-.22-3.51-.66c-1.06-.44-1.97-1.07-2.73-1.87-.76-.81-1.36-1.79-1.78-2.93-.42-1.15-.63-2.42-.63-3.83s.21-2.67.63-3.82c.42-1.14,1.02-2.12,1.78-2.93.76-.81,1.67-1.44,2.73-1.88,1.06-.45,2.23-.67,3.51-.67s2.47.22,3.53.66c1.06.44,1.97,1.07,2.73,1.88.76.81,1.35,1.79,1.77,2.94.42,1.15.63,2.42.63,3.82Zm-26.8,6.04c.09,0,.16.03.22.09l.51.55c-.38.4-.79.76-1.23,1.08-.45.32-.93.59-1.46.82-.53.23-1.1.4-1.74.53-.63.12-1.32.19-2.08.19-1.26,0-2.41-.22-3.46-.66-1.05-.44-1.95-1.07-2.7-1.87-.75-.81-1.34-1.79-1.76-2.94-.42-1.15-.63-2.42-.63-3.83s.22-2.64.66-3.78c.44-1.14,1.04-2.12,1.83-2.94.78-.82,1.73-1.45,2.82-1.9,1.09-.45,2.3-.68,3.61-.68.66,0,1.26.05,1.81.15.55.1,1.06.24,1.54.42.48.18.92.42,1.34.69.42.27.83.59,1.23.95l-.4.58c-.07.1-.17.15-.32.15-.08,0-.17-.05-.3-.14-.12-.09-.27-.2-.45-.33-.18-.13-.41-.28-.67-.44-.26-.16-.57-.3-.93-.44-.36-.13-.78-.24-1.25-.33-.47-.09-1.01-.13-1.61-.13-1.1,0-2.12.19-3.04.57-.92.38-1.72.93-2.39,1.63-.67.71-1.19,1.56-1.56,2.57-.37,1.01-.56,2.14-.56,3.39s.18,2.44.55,3.45c.37,1.01.88,1.87,1.53,2.57.65.7,1.42,1.23,2.31,1.61.89.37,1.85.56,2.88.56.65,0,1.23-.04,1.74-.13.51-.09.98-.21,1.4-.38.43-.17.83-.38,1.19-.63.37-.25.73-.54,1.09-.87.04-.03.09-.06.12-.09.04-.02.08-.03.13-.03Z"/><path class="cls-1" d="m420.65,259.05v-9.16h-28.27c-12.24,0-18.04,4.58-18.04,15.71,0,10.27,5.37,14.71,17.11,14.71h12.74c5.23,0,7.66,1.36,7.66,5.94s-2.65,5.8-8.37,5.8h-27.06v9.16h28.77c12.17,0,17.97-4.58,17.97-15.39s-4.94-14.53-16.39-14.53h-14.32c-4.51,0-6.8-1.85-6.8-5.55,0-4.7,2.65-6.69,8.3-6.69h26.7Zm-73.64-.22h17.75v-8.95h-17.97c-16.53,0-24.19,8.45-24.19,26.56,0,9.31,2.58,16.03,7.87,20.26,5.01,4.01,9.81,4.51,16.03,4.51h18.25v-8.95h-17.75c-8.52,0-12.17-3.36-12.24-12.6h29.99v-8.95h-29.92c.43-8.04,4.37-11.88,12.17-11.88Zm-68.49-14.32h3.51c.43-1.65,1.5-2.51,3.22-2.51.5,0,1,.07,1.43.22l4.8,1.22c.71.21,1.43.29,2.08.29,3.72,0,6.51-2.86,7.44-8.3h-3.51c-.43,1.72-1.5,2.65-3.08,2.65-.57,0-1.14-.07-1.79-.22l-4.51-1.14c-.86-.21-1.65-.29-2.43-.29-3.72,0-6.08,2.72-7.16,8.09Zm-14.32,30.49c0,18.68,7.95,27.27,25.63,27.27s25.63-8.59,25.63-26.77-8.16-26.7-25.63-26.7-25.63,8.52-25.63,26.2Zm25.63-17.39c9.52,0,13.89,5.8,13.89,17.89s-4.37,17.9-13.89,17.9-13.81-5.8-13.81-18.32c0-11.67,4.51-17.47,13.81-17.47Zm-60.54,53.4v4.37c3.79,1,7.09,1.5,9.74,1.5,5.44,0,8.37-2.51,8.37-6.66,0-3.94-2.72-6.08-7.73-6.08h-.5v-3.29h-3.87v7.37c.64-.07,1.29-.07,1.79-.07,2.79,0,4.01.5,4.01,2s-.86,2.29-2.79,2.29-5.01-.43-9.02-1.43Zm9.52-52.33h17.75v-8.8h-17.97c-16.54,0-24.19,8.45-24.19,26.59,0,9.28,2.58,16,7.87,20.22,5.01,4.01,9.81,4.51,16.03,4.51h18.25v-8.95h-17.75c-9.09,0-12.6-3.85-12.6-15.35,0-12.72,3.51-18.22,12.6-18.22Zm-68.56-8.8h-10.74v31.02c0,6.5.57,11.01,2.93,13.79,4.22,5.01,10.45,7.09,19.4,7.09s15.1-2.08,19.33-7.09c2.29-2.71,3.01-7.22,3.01-13.79v-31.02h-10.81v30.73c0,9.08-2.58,12.86-11.52,12.86s-11.6-3.78-11.6-12.86v-30.73Zm-31.62,51.32h13.67v-8.52h-12.74c-4.58,0-7.66-.65-9.95-3.35-1.72-2-1.79-5.08-1.79-9.29v-30.16h-10.81v30.52c0,6.79.72,11.3,4.65,15.44,4.58,4.87,9.52,5.37,16.97,5.37Zm-82.02-26.2c0,18.68,7.95,27.27,25.63,27.27s25.63-8.59,25.63-26.77-8.16-26.7-25.63-26.7-25.63,8.52-25.63,26.2Zm25.63-17.39c9.52,0,13.89,5.8,13.89,17.89s-4.37,17.9-13.89,17.9-13.81-5.8-13.81-18.32c0-11.67,4.51-17.47,13.81-17.47Zm-35.92,1.43v-9.16h-28.27c-12.24,0-18.04,4.58-18.04,15.71,0,10.27,5.37,14.71,17.11,14.71h12.74c5.23,0,7.66,1.36,7.66,5.94s-2.65,5.8-8.37,5.8H2.08v9.16h28.77c12.17,0,17.97-4.58,17.97-15.39s-4.94-14.53-16.39-14.53h-14.32c-4.51,0-6.8-1.85-6.8-5.55,0-4.7,2.65-6.69,8.3-6.69h26.7Z"/></g></svg>